<svg width="60" height="60" viewBox="0 0 60 60" fill="none" xmlns="http://www.w3.org/2000/svg">
<circle cx="30" cy="30" r="30" fill="#D9D9D9"/>
<mask id="mask0_78_10416" style="mask-type:alpha" maskUnits="userSpaceOnUse" x="0" y="0" width="60" height="60">
<circle cx="30" cy="30" r="28.5" fill="#D9D9D9" stroke="black" stroke-width="3"/>
</mask>
<g mask="url(#mask0_78_10416)">
<path d="M28.4311 49.1328C26.5139 49.1328 23.6358 48.5027 19.8628 47.2534C16.887 46.2688 14.4547 45.2653 14.3523 45.2228C13.5284 44.8825 13.1362 43.9373 13.478 43.1134C13.8199 42.2895 14.7635 41.8973 15.5874 42.2391C18.2119 43.3245 25.6853 46.0971 28.7194 45.8955C29.6079 45.8356 30.3798 46.5099 30.4381 47.3999C30.4979 48.29 29.8237 49.0603 28.9336 49.1186C28.7729 49.1296 28.606 49.1344 28.4279 49.1344L28.4311 49.1328Z" fill="#2B1D1A"/>
<path d="M34.3901 80.2032C33.5032 80.2032 32.6525 79.488 32.6462 78.5995L32.6226 58.4604C32.6163 57.5687 33.3331 56.8394 34.2263 56.8331C34.231 56.8331 34.2342 56.8331 34.2389 56.8331C35.1258 56.8331 35.8473 57.5483 35.8536 58.4368L36.0064 79.4155C36.0127 80.3072 35.2959 80.1969 34.4043 80.2032C34.3996 80.2032 34.3964 80.2032 34.3917 80.2032H34.3901Z" fill="#2B1D1A"/>
<path d="M49.4919 80.7797C48.7578 80.7797 48.1576 81.1153 47.9843 80.3702L43.052 58.8668C42.8503 57.9972 43.3907 57.1292 44.2587 56.9276C45.1283 56.7259 45.9963 57.2663 46.1979 58.1343L51.1303 79.3147C51.3319 80.1843 49.6117 80.7797 49.4904 80.7797H49.4919Z" fill="#2B1D1A"/>
<path d="M61.0088 19.0754C61.0088 19.1888 61.0844 19.2534 61.171 19.2707C60.8056 19.8567 58.8758 20.7436 58.545 20.9736C58.3717 21.0634 58.1984 21.1501 58.0235 21.2351C57.9416 21.0508 57.7699 21.106 57.6738 21.4005C55.5833 22.3694 53.3574 23.0058 51.1125 23.5225C46.5047 24.7151 41.733 25.2097 36.9786 25.1766C32.3692 25.038 27.6479 24.537 23.3519 22.7727C23.3141 22.7585 23.27 22.7427 23.2212 22.7254C23.1991 22.5726 23.1566 22.4403 23.0715 22.4088L23.1251 22.2623C23.6796 22.4686 24.2373 22.6671 24.7792 22.8987C30.4457 24.6867 36.5344 25.1105 42.4308 24.526C46.5236 24.3181 50.5218 23.3083 54.4554 22.2292C56.1867 21.6038 57.8959 20.9437 59.4744 19.9906C59.8934 19.7449 60.3204 19.5117 60.6843 19.1919C60.7835 19.1069 60.8843 18.954 61.0056 18.9241C61.0056 18.9761 61.0056 19.0265 61.0056 19.0785L61.0088 19.0754Z" fill="#2B1D1A"/>
<path d="M60.5032 13.2388C60.8324 13.4782 60.9679 13.7177 60.9663 13.9508C60.8749 13.9225 60.7773 13.9776 60.7473 14.1273C60.7568 14.2312 60.7662 14.3336 60.7741 14.4376C60.1897 15.2095 58.4253 15.8601 57.8235 16.1232C55.147 17.2669 52.3965 18.2688 49.5593 18.9305C47.9619 19.3968 46.2983 19.4519 44.6568 19.6488C44.3386 19.6425 42.9571 19.9261 42.3112 19.8631C42.4088 19.8442 42.4813 19.7591 42.4797 19.6567C42.4766 19.5464 42.3805 19.4519 42.2686 19.4566C42.2277 19.4582 42.1867 19.4614 42.1458 19.4629C42.3694 19.3842 42.7554 19.4881 42.9523 19.433C43.6439 19.3542 44.3355 19.2755 45.0286 19.192C45.9124 19.0754 46.8056 19.0455 47.6831 18.9147C48.8173 18.7241 49.887 18.4201 50.9976 18.1491C51.7049 17.9758 63.783 14.1477 59.7013 13.442C59.3705 13.3837 59.0349 13.3837 58.7025 13.3821C58.6836 13.2624 58.6616 13.138 58.6364 13.0119C59.246 12.8906 59.9234 13.0356 60.5047 13.2419L60.5032 13.2388Z" fill="#2B1D1A"/>
<path d="M60.7761 14.436C60.9053 15.9263 60.9982 17.4213 61.0092 18.9194C60.8879 18.9493 60.7871 19.1021 60.6879 19.1872C60.324 19.507 59.8971 19.7417 59.478 19.9859C57.8995 20.939 56.1903 21.599 54.459 22.2245C50.5254 23.3036 46.5272 24.3118 42.4345 24.5213C36.538 25.1057 30.4493 24.682 24.7828 22.894C24.2409 22.6624 23.6832 22.4639 23.1287 22.2575C22.341 21.9645 21.5612 21.6558 20.8429 21.2162C20.616 21.1249 20.3498 20.7499 20.0915 20.7027C20.0962 20.6822 20.0962 20.6586 20.0915 20.6349C20.0426 20.2127 20.019 19.7874 20.0048 19.3636C19.9796 18.1601 20.0001 16.9518 20.1639 15.7593C20.416 16.0491 20.8303 16.3579 21.4588 16.6824C23.4753 17.7647 25.6792 18.3948 27.9256 18.7855C30.8132 19.5621 33.7843 19.811 36.7601 19.9969C38.1495 20.134 39.5421 20.0017 40.9347 19.9623C41.3837 19.9339 41.8327 19.8898 42.2832 19.8693C42.2943 19.8693 42.3053 19.8677 42.3163 19.8646C42.9622 19.9276 44.3438 19.6425 44.662 19.6504C46.3035 19.4534 47.967 19.3983 49.5644 18.932C52.4016 18.2704 55.1521 17.2684 57.8286 16.1248C58.4304 15.8617 60.1948 15.2126 60.7793 14.4391L60.7761 14.436ZM60.064 18.6595C60.4532 18.6437 60.0798 17.4937 60.1507 17.1755C60.0751 16.8289 60.3413 16.1563 60.0152 15.953C59.4828 15.9641 59.834 18.064 59.8403 18.4736C59.8514 18.5854 59.9522 18.6705 60.064 18.6595ZM58.5265 19.1163C58.5486 19.3825 58.9613 19.3432 58.9361 19.0801C58.8589 18.2924 58.8022 17.5 58.7754 16.7092C58.7345 16.4682 58.4777 16.38 58.3926 16.6493C58.3391 17.4669 58.4714 18.2987 58.5265 19.1163ZM56.8866 19.9339C56.9086 20.2001 57.3214 20.1608 57.2962 19.8977C57.2379 19.0864 57.3308 18.2499 57.219 17.448C57.0772 17.1235 56.8031 17.4339 56.8441 17.667C56.8724 18.4216 56.8535 19.1793 56.8866 19.9339ZM55.2467 20.7137C55.2703 20.9799 55.683 20.939 55.6563 20.6759C55.6389 20.5404 55.6247 20.4034 55.6153 20.2663C55.5019 19.7086 55.6878 18.3097 55.3963 17.9616C54.9395 17.7726 55.1805 18.702 55.1427 18.9367C55.1663 19.5291 55.1758 20.1245 55.2482 20.7137H55.2467ZM53.9628 21.3801C54.3393 21.3202 54.0274 20.4538 54.0715 20.1592C53.9769 19.7984 54.1534 18.7682 53.8462 18.6248C53.3326 18.5602 53.7722 20.7972 53.7375 21.1942C53.7469 21.306 53.8509 21.3911 53.9612 21.3801H53.9628ZM52.2583 19.4755C52.3197 18.9509 51.8676 18.6437 51.8361 19.2975C51.8628 19.8095 51.9085 20.3183 51.9479 20.8303C52.0346 21.1138 51.8109 21.8684 52.1748 21.9251C52.6505 22.0149 52.2094 19.8457 52.2583 19.4755ZM50.3773 22.3363C50.7459 22.3253 50.4356 21.2556 50.4813 20.9642C50.3962 20.6034 50.5537 19.5243 50.2497 19.3762C49.8322 19.4487 50.0622 20.0631 50.0339 20.3608C50.0717 20.9579 50.0969 21.5549 50.1536 22.1504C50.1662 22.2623 50.2655 22.3473 50.3773 22.3363ZM48.4066 22.8562C48.7736 22.7475 48.5042 22.2087 48.542 21.9283C48.4318 21.5266 48.6885 19.9686 48.2333 19.9213C47.9135 20.0773 48.1324 20.5388 48.0915 20.8193C48.0915 21.4352 48.1403 22.0543 48.1844 22.6703C48.1907 22.7821 48.2994 22.8656 48.4066 22.8562ZM46.6422 23.1303C46.9368 23.083 46.7918 22.7223 46.8029 22.519C46.7099 22.0827 46.8422 20.2348 46.45 20.145C46.0625 20.2726 46.3397 20.846 46.3066 21.1485C46.3476 21.7471 46.3744 22.3473 46.4185 22.946C46.4264 23.0578 46.5319 23.1413 46.6422 23.1318V23.1303ZM44.5517 21.0004C44.5627 20.8224 44.5911 20.5625 44.38 20.4916C43.9231 20.4112 44.1705 23.1571 44.161 23.5588C44.1736 23.6706 44.2713 23.7557 44.3847 23.7447C44.7392 23.6974 44.4777 22.9381 44.5344 22.664C44.5281 22.1095 44.5297 21.5534 44.5517 21.0004ZM42.6519 24.107C43.0032 24.0219 42.7574 23.543 42.7889 23.2878C42.6786 22.831 42.8503 20.5451 42.4849 20.5073C42.0784 20.6176 42.3384 21.2572 42.3006 21.5691C42.3273 22.3536 42.3525 23.1397 42.4297 23.9195C42.4423 24.0314 42.54 24.1164 42.6519 24.107ZM40.7331 23.8439C41.0986 23.7699 40.8276 23.031 40.8749 22.7443C40.8418 22.2449 40.826 21.744 40.826 21.243C40.8245 21.0556 40.8796 20.783 40.6622 20.6932C40.1486 20.6129 40.5582 23.2311 40.511 23.658C40.5173 23.7699 40.626 23.8534 40.7331 23.8439ZM38.6852 24.2425C39.0538 24.1826 38.7529 23.4312 38.8017 23.1492C38.7608 22.5395 38.7198 21.9283 38.6883 21.3186C38.6741 21.1548 38.7025 20.9626 38.567 20.8429C38.1133 20.6129 38.315 21.5439 38.3023 21.7708C38.3528 22.5332 38.3843 23.2973 38.463 24.0566C38.4772 24.1684 38.5733 24.2535 38.6867 24.244L38.6852 24.2425ZM36.5317 24.2094C36.894 24.1731 36.6073 23.2878 36.664 23.0027C36.6514 22.6356 36.6404 22.267 36.6325 21.8984C36.56 21.5502 36.82 20.8697 36.4923 20.657C35.9693 20.5168 36.3222 23.5966 36.308 24.0235C36.319 24.1353 36.4198 24.2204 36.5317 24.2094ZM34.3703 23.8014C34.7484 23.7604 34.4254 22.8136 34.4759 22.5175C34.4554 22.1189 34.4396 21.7203 34.4317 21.3218C34.3892 21.0682 34.542 20.6507 34.2427 20.5215C33.7575 20.4554 34.1592 23.1964 34.1466 23.6155C34.1561 23.7273 34.26 23.8124 34.3703 23.8029V23.8014ZM32.2956 23.7336C32.6611 23.7257 32.3539 22.7081 32.4137 22.4166C32.3302 22.0338 32.6406 20.4979 32.3019 20.4081C31.8041 20.3246 32.0498 23.1523 32.0735 23.5477C32.0861 23.6596 32.1837 23.7447 32.2956 23.7336ZM30.4761 23.1791C30.8431 23.0783 30.558 22.5616 30.6037 22.2875C30.5296 21.5817 30.6478 20.8445 30.5564 20.1529C29.9011 19.4078 30.235 22.7364 30.254 22.9916C30.265 23.1035 30.3642 23.1886 30.4761 23.1791ZM28.6928 20.2364C28.6975 20.0694 28.7574 19.8819 28.6424 19.7386C28.0359 19.162 28.2769 22.508 28.2738 22.7963C28.2848 22.9082 28.3872 22.9932 28.4975 22.9822C28.8551 22.9018 28.592 22.3174 28.6503 22.048C28.6455 21.4714 28.6566 20.8303 28.6928 20.2364ZM26.4889 22.3773C26.511 22.6435 26.9253 22.6041 26.8985 22.341C26.8386 21.7881 26.7898 21.2336 26.7803 20.679C26.7 20.3214 26.9757 19.1967 26.6401 19.088C26.1014 19.1021 26.4684 21.9141 26.4889 22.3788V22.3773ZM25.0034 19.2297C25.0034 19.0612 25.0553 18.8658 24.9262 18.7304C24.3275 18.2231 24.6536 21.4384 24.619 21.744C24.6253 21.8558 24.7324 21.9409 24.8411 21.9299C25.1971 21.8322 24.9466 21.3186 25.0002 21.0477C24.9923 20.4427 24.9813 19.8347 25.0018 19.2297H25.0034ZM23.1413 18.6595C23.1476 18.4704 23.1933 18.19 22.9696 18.1112C22.6404 18.1711 22.7585 18.628 22.7238 18.8721C22.7081 19.6756 22.6923 20.4806 22.7049 21.2855C22.7081 21.3974 22.8215 21.4809 22.9286 21.473C23.2831 21.3864 23.0468 20.7673 23.113 20.49C23.1193 19.8804 23.1224 19.2707 23.1429 18.661L23.1413 18.6595ZM21.566 17.8592C21.5691 17.6623 21.6353 17.3787 21.41 17.2795C20.9248 17.1298 21.1958 20.2033 21.1406 20.6286C21.1469 20.8051 21.3958 20.8807 21.503 20.7421C21.618 20.438 21.5093 20.071 21.5423 19.7386C21.5423 19.1116 21.536 18.4846 21.566 17.8592Z" fill="#9DBDC2"/>
<path d="M60.1488 17.1755C60.0779 17.4953 60.4513 18.6437 60.0622 18.6594C59.9519 18.6705 59.8495 18.5854 59.8385 18.4735C59.8306 18.0624 59.4809 15.964 60.0134 15.953C60.3394 16.1562 60.0732 16.8289 60.1488 17.1755Z" fill="#2B1D1A"/>
<path d="M59.7017 13.4404C63.7834 14.1462 51.7053 17.9742 50.998 18.1475C49.8873 18.4185 48.8177 18.7225 47.6835 18.9131C46.806 19.0439 45.9128 19.0738 45.029 19.1904C44.3374 19.2739 43.6459 19.3526 42.9527 19.4314C42.7558 19.4865 42.3698 19.3826 42.1461 19.4613C41.5617 19.4944 40.9804 19.5527 40.3959 19.5748C38.6016 19.6787 36.8184 19.6299 35.0256 19.4598C33.6551 19.3196 32.2767 19.2392 30.914 19.0281C29.931 18.8281 28.9574 18.5823 27.9776 18.3728C26.4495 18.0703 24.9104 17.7805 23.4768 17.1472C22.4261 16.6982 21.3092 16.2886 20.4664 15.4773C20.3608 15.3718 20.2978 15.2678 20.2694 15.1686C20.145 14.7353 20.6491 14.3699 21.0981 14.2297C21.2682 14.1462 21.4777 14.1241 21.6542 14.0516C21.6431 14.3368 21.6762 14.5904 21.7739 14.7857C21.6416 14.8314 21.6699 15.0425 21.9661 15.304C22.3079 15.5892 22.6687 15.8444 23.0436 16.0712C24.222 16.7848 25.5453 17.2354 26.8796 17.5898C30.5895 18.8674 34.5325 18.9572 38.4173 18.9021C44.9124 18.9698 51.5588 17.9128 57.5136 15.2599C57.6821 15.1213 58.2933 14.9291 58.4887 14.6833C58.7896 14.6534 58.8085 14.0989 58.6966 13.3774C59.029 13.3774 59.3646 13.379 59.6954 13.4373L59.7017 13.4404Z" fill="#BECDCF"/>
<path d="M58.9342 19.0816C58.9594 19.3447 58.5467 19.3841 58.5246 19.1178C58.4695 18.3002 58.3356 17.4685 58.3907 16.6509C58.4758 16.3815 58.7326 16.4697 58.7735 16.7107C58.8003 17.5015 58.857 18.2939 58.9342 19.0816Z" fill="#2B1D1A"/>
<path d="M58.7012 13.3805C58.813 14.1036 58.7925 14.6565 58.4932 14.6865C58.5562 14.6061 58.5767 14.521 58.5232 14.4297C58.4791 14.3651 58.4066 14.3383 58.3357 14.3462C58.3357 14.3194 58.3388 14.2926 58.3373 14.269C58.2963 12.9394 57.9545 11.6681 57.4598 10.4441C56.7415 8.76477 56.1476 7.01614 55.1614 5.46759C53.6632 3.06678 51.6925 0.85973 49.2964 -0.663621C49.1263 -0.791223 48.9073 -0.840059 48.7183 -0.91725C48.7151 -0.973962 48.6899 -1.02752 48.6316 -1.07636C48.6994 -1.18033 48.6836 -1.34732 48.5308 -1.393C48.5277 -1.393 48.5229 -1.39615 48.5198 -1.39615C48.8065 -1.44971 49.3957 -1.04485 49.5926 -0.969236C51.9965 0.587196 54.0082 2.8289 55.5095 5.24862C56.4532 6.7121 57.0234 8.36148 57.7024 9.95415C57.8836 10.2865 58.3956 11.7863 58.6366 13.0087C58.6177 13.0119 58.5988 13.0166 58.5814 13.0198C58.3483 13.1395 58.4901 13.36 58.7027 13.3789L58.7012 13.3805Z" fill="#2B1D1A"/>
<path d="M58.635 13.0087C58.6602 13.1363 58.6823 13.2608 58.7012 13.3789C58.4869 13.36 58.3467 13.1379 58.5799 13.0198C58.5988 13.015 58.6177 13.0119 58.635 13.0087Z" fill="#2B1D1A"/>
<path d="M58.5216 14.4296C58.5752 14.521 58.5563 14.6061 58.4917 14.6864C58.3137 14.6486 58.3263 14.4895 58.3341 14.3461C58.405 14.3383 58.4775 14.3666 58.5216 14.4296Z" fill="#2B1D1A"/>
<path d="M58.3356 14.2674C58.3356 14.291 58.3356 14.3178 58.334 14.3446C58.3104 14.3461 58.2852 14.3524 58.2631 14.3635C58.1844 13.3301 56.902 12.451 55.9364 12.336C56.0151 10.8426 55.04 9.90684 53.5623 9.9478C53.3764 8.85925 52.7652 7.68562 51.6404 7.35322C50.7031 7.08542 49.8587 7.70137 49.0474 8.06843C48.9041 7.61945 48.6756 7.19412 48.3905 6.83651C47.168 5.27851 45.5675 5.1383 44.5955 3.20851C44.3372 2.81625 44.041 3.10297 43.9654 3.44639C43.8583 3.7205 43.6866 3.95995 43.5148 4.19467C42.9461 4.8831 42.3491 5.66131 41.5315 6.06933C41.8907 5.0359 42.2577 4.00563 42.609 2.96906C42.7492 2.55632 42.8847 2.14358 43.017 1.7277C43.0627 1.59222 43.11 1.45674 43.1572 1.31968C45.0524 1.31968 47.0326 1.03297 48.3811 -0.350172C48.4756 -0.504555 48.7324 -0.725103 48.7213 -0.918869C48.9104 -0.841678 49.1293 -0.792842 49.2995 -0.66524C51.6956 0.858111 53.6663 3.06673 55.1645 5.46597C56.1506 7.01453 56.7429 8.76315 57.4629 10.4425C57.9575 11.6649 58.2994 12.9378 58.3403 14.2674H58.3356Z" fill="#BECDCF"/>
<path d="M58.3342 14.3446C58.3263 14.488 58.3121 14.6471 58.4917 14.6849C58.2964 14.9306 57.6836 15.1213 57.5166 15.2615C51.5618 17.9143 44.9155 18.9714 38.4203 18.9036C34.5356 18.9604 30.5909 18.869 26.8826 17.5914C25.5483 17.2369 24.225 16.7864 23.0466 16.0728L23.0797 16.0192C23.1837 16.0885 23.3428 16.0948 23.3601 15.9389C23.3727 15.8837 23.3711 15.8317 23.3601 15.7798C24.4377 16.4162 25.6318 16.8321 26.8463 17.1534C29.8993 18.1979 33.1162 18.5067 36.3283 18.5019C40.2367 18.5523 44.1577 18.4594 48.0047 17.7001C50.4276 17.2196 52.8504 16.6304 55.1819 15.8144C56.1271 15.4316 57.0708 15.0756 57.9435 14.5604C58.0301 14.6487 58.1987 14.6487 58.268 14.5321C58.2712 14.4754 58.2712 14.4202 58.2664 14.3635C58.2901 14.3525 58.3137 14.3478 58.3373 14.3446H58.3342Z" fill="#2B1D1A"/>
<path d="M58.2617 14.3635C58.2664 14.4202 58.2664 14.4753 58.2632 14.532C58.1939 14.6486 58.0254 14.6486 57.9387 14.5604C58.038 14.5021 58.1356 14.4407 58.2333 14.3792C58.2428 14.3745 58.2522 14.3682 58.2601 14.3635H58.2617Z" fill="#2B1D1A"/>
<path d="M58.262 14.3636C58.2525 14.3683 58.2431 14.373 58.2352 14.3793C58.1375 14.4423 58.0398 14.5038 57.9406 14.5605C57.9154 14.5369 57.8981 14.5038 57.8918 14.466C57.7453 13.7618 57.1687 13.1899 56.5165 12.919C56.2109 12.7378 55.6438 12.8654 55.5366 12.4495C55.5886 11.2838 55.0152 10.3465 53.7549 10.3811C52.9547 10.4457 53.1752 9.55407 52.8664 9.04996C52.1245 7.45257 50.902 7.42736 49.5315 8.29695C49.3991 8.39305 49.2637 8.44346 49.1455 8.45921C49.1203 8.32688 49.0856 8.19613 49.0447 8.06695C49.8576 7.6999 50.7004 7.08394 51.6377 7.35175C52.7625 7.68414 53.3737 8.85935 53.5596 9.94633C55.0373 9.90537 56.014 10.8411 55.9336 12.3345C56.8993 12.4495 58.1816 13.3286 58.2604 14.362L58.262 14.3636Z" fill="#2B1D1A"/>
<path d="M58.0225 21.2335C58.0792 21.3595 58.0918 21.5958 58.0099 21.944C57.4002 27.0591 56.7402 32.1601 55.88 37.2389C55.2357 42.2564 54.5394 47.2644 53.7045 52.2535C53.5438 53.2727 53.4083 54.3077 53.2933 55.3301C53.2602 55.4892 53.298 55.7302 53.1783 55.8311C53.2193 55.683 53.1752 55.5696 52.9247 55.59C52.9074 55.6137 52.89 55.6357 52.8711 55.6609C52.8081 55.13 53.1137 53.8178 53.0932 53.5878C53.4398 51.094 53.8715 48.6144 54.2716 46.1301C54.8513 42.1997 55.2452 38.2409 55.932 34.3261C56.6204 30.1925 57.0804 26.021 57.605 21.87C57.6082 21.6746 57.6334 21.5187 57.6728 21.3989C57.7893 21.3454 57.9059 21.2902 58.0225 21.2335Z" fill="#2B1D1A"/>
<path d="M57.6741 21.3989C57.7686 21.1043 57.9403 21.0492 58.0238 21.2335C57.9072 21.2902 57.7922 21.3453 57.6741 21.3989Z" fill="#2B1D1A"/>
<path d="M57.8901 14.4659C57.8964 14.5037 57.9137 14.5368 57.9389 14.5604C57.0677 15.0756 56.1225 15.4316 55.1773 15.8144C52.8458 16.6304 50.423 17.2196 48.0001 17.7001C44.1531 18.4594 40.2337 18.5508 36.3237 18.5019C33.1116 18.5067 29.8947 18.1979 26.8417 17.1535C25.6256 16.8321 24.4331 16.4162 23.3555 15.7798C23.3303 15.6585 23.2579 15.5435 23.2342 15.4237C22.8703 14.2296 23.1602 12.5188 24.4535 12.032C25.1672 11.8918 25.8776 12.2494 26.5976 12.2416C26.6354 12.3802 26.6921 12.5204 26.7157 12.6291C27.1269 14.1572 28.8566 14.7054 30.2886 14.51C30.5438 15.2252 31.0195 15.8065 31.7048 16.1452C32.4688 16.5643 33.2786 17.0006 34.1608 17.0684C34.427 17.0936 36.4214 17.0085 36.2386 16.6021C36.1315 16.2476 35.3942 16.6257 35.1044 16.6115C34.0347 16.8321 33.0092 16.402 32.0892 15.8916C31.5835 15.6096 31.0558 15.2867 30.8352 14.7227C30.736 14.5258 30.6903 14.269 30.4902 14.1461C29.3339 14.0815 28.0674 14.2154 27.3474 13.0387C27.171 12.8496 27.1017 12.3629 26.982 12.0415C27.182 11.5673 26.5598 10.3953 27.965 9.61074C28.6581 9.13814 29.4993 9.14287 30.2555 9.47684C30.4272 9.53512 30.5942 9.69108 30.7848 9.62177C31.0384 9.49416 31.0983 9.16965 31.2747 8.96328C31.3929 8.81047 31.5236 8.68917 31.6765 8.56787C32.6862 7.64472 33.4361 8.03698 34.6129 7.94719C34.8775 7.90623 35.8464 7.59116 36.3205 7.23356C36.2118 7.67938 35.9503 8.52691 35.9188 8.98533C35.5565 8.93807 35.8401 10.3764 37.6454 10.5496C38.7088 10.6914 39.8099 10.2929 40.4999 9.46423C40.5582 9.39807 40.5629 9.32561 40.5346 9.26417C40.6322 9.06095 40.6228 8.74116 40.7142 8.55211C40.8796 7.96924 41.0749 7.39424 41.2655 6.81924C41.2939 6.7389 41.3207 6.65698 41.349 6.57507C41.5617 6.55301 41.7681 6.39705 41.9555 6.30726C42.9322 5.60939 43.8207 4.66576 44.3469 3.58035C45.4039 5.73069 47.956 5.8835 48.6775 8.26225C48.6885 8.29849 48.6995 8.33472 48.709 8.36938C49.2194 10.2283 47.5306 10.8395 47.893 11.2774C48.2112 11.4885 48.4916 10.8017 48.6885 10.6142C49.1816 9.98882 49.2887 9.20745 49.1422 8.45759C49.2604 8.44184 49.3958 8.39143 49.5282 8.29533C50.8971 7.42417 52.1196 7.45095 52.8632 9.04834C53.1719 9.55245 52.9514 10.4425 53.7516 10.3795C55.0119 10.3448 55.5853 11.2822 55.5334 12.4479C55.6405 12.8638 56.2076 12.7378 56.5132 12.9174C57.1654 13.1883 57.7404 13.7602 57.8885 14.4644L57.8901 14.4659ZM55.3632 13.9981C55.3868 13.5034 54.9914 13.705 54.9064 14.0422C54.7961 14.4108 53.8367 14.8755 54.1108 15.148C54.3991 15.4568 55.3254 14.2895 55.3632 13.9981ZM49.6243 15.3103C51.4926 14.8472 53.0128 13.1962 53.0112 11.2034C52.9167 10.7938 52.5812 11.0695 52.5953 11.3578C52.3496 14.8267 48.7153 14.6802 49.6243 15.3087V15.3103ZM50.4151 10.0298C50.4797 9.84704 50.3111 9.47841 50.1095 9.70053C49.9693 9.86752 50.0181 10.1117 49.9173 10.307C49.8637 10.5024 49.5975 10.7859 49.859 10.9324C50.215 11.0695 50.3489 10.2724 50.4135 10.0298H50.4151ZM48.2931 16.2004C48.4743 16.1389 48.7531 16.1547 48.8161 15.9278C48.6901 15.4615 47.7732 15.9546 47.5086 16.1027C47.3589 16.1972 47.4172 16.4493 47.5889 16.4729C47.8347 16.4509 48.0411 16.2398 48.2931 16.1988V16.2004ZM46.4767 12.6653C46.5587 12.5204 46.7052 12.4007 46.7083 12.2242C46.6973 11.884 46.2861 12.1234 46.2152 12.3156C45.7411 13.0198 45.4323 13.8626 44.7407 14.395C44.161 14.8062 43.4678 15.1039 42.7542 15.1591C42.5542 15.1827 42.2281 15.0063 42.1572 15.2898C42.1383 15.397 42.2107 15.512 42.3226 15.5293C43.4568 15.6837 44.6698 15.115 45.437 14.2958C45.8687 13.8106 46.1302 13.2088 46.4752 12.6653H46.4767ZM44.8888 10.9387C45.6324 10.003 45.5804 8.68287 45.3929 7.5628C45.3189 7.02404 44.8289 7.17055 44.9943 7.66678C45.2086 8.89711 45.2086 10.5071 43.9578 11.1782C42.2517 12.2794 41.4971 10.9829 40.722 12.1392C40.377 12.4952 39.9533 12.785 39.4649 12.9189C38.8978 13.0702 38.2551 13.1033 37.721 12.826C37.4753 12.6606 37.2689 12.4164 36.9428 12.44C36.3426 12.4432 35.7645 12.6496 35.1706 12.7236C34.0694 12.9741 31.8844 12.1801 32.8595 10.7844C32.9099 10.6835 32.8627 10.5575 32.7634 10.5103C32.4515 10.4031 32.3759 10.8805 32.2625 11.079C31.8986 12.0572 32.9399 12.8118 33.7669 13.056C34.8838 13.4388 35.9976 12.8024 37.1066 12.878L37.1035 12.8748C37.3886 13.1143 37.7021 13.327 38.0802 13.3852C38.9592 13.557 39.9375 13.338 40.6322 12.7677C40.9599 12.5834 41.1237 12.147 41.4624 12.0226C42.7038 12.24 44.0287 11.8871 44.8888 10.9372V10.9387ZM41.2277 15.6868C41.1931 15.4064 40.8717 15.5561 40.6953 15.4631C40.6527 15.4379 40.6133 15.4174 40.5755 15.4048C40.4605 15.2961 40.2872 15.2473 40.1675 15.4253C40.0951 15.5765 40.2211 15.701 40.3566 15.7451C40.3912 15.7719 40.4337 15.7971 40.4842 15.8207C40.7016 15.9121 41.212 16.0476 41.2261 15.6884L41.2277 15.6868ZM40.9221 10.4252C40.9946 10.3401 40.9835 10.2078 40.8985 10.1353C40.6921 9.97307 40.5472 10.2456 40.4164 10.3716C40.3046 10.5938 39.487 10.8379 39.832 11.0994C40.2809 11.2192 40.6417 10.7088 40.9205 10.4252H40.9221ZM36.2355 11.1435C36.4875 11.2302 36.6167 10.8301 36.3631 10.7529C36.1567 10.6993 35.9535 10.6284 35.766 10.5244C35.3659 10.3701 35.2131 9.92266 34.8681 9.72259C34.7484 9.66903 34.6601 9.78245 34.6664 9.89588C34.7011 10.1968 34.9847 10.4157 35.1832 10.6237C35.484 10.8789 35.8558 11.0459 36.2355 11.1435ZM26.5078 16.4524C26.6511 16.558 26.8654 16.4052 26.8197 16.235C26.7567 16.068 26.555 16.0003 26.4416 15.8664C26.1927 15.6931 26.1628 15.3292 25.9091 15.1843C25.29 15.3907 26.2274 16.2744 26.5078 16.454V16.4524Z" fill="#FFEFE3"/>
<path d="M57.6738 21.3989C57.636 21.5171 57.6092 21.6746 57.606 21.87C57.0814 26.0225 56.6215 30.1925 55.933 34.3261C55.2462 38.2408 54.8523 42.1997 54.2726 46.1301C53.8741 48.6144 53.4408 51.0956 53.0943 53.5878C53.1132 53.8178 52.8091 55.13 52.8722 55.6609C52.3129 56.3966 51.7489 57.1827 50.9802 57.7404C49.3434 59.1235 47.2718 59.793 45.2318 60.3334C41.6085 61.173 37.7568 61.559 34.154 60.4137C32.6574 59.8718 31.2491 59.103 29.8155 58.4178C29.0058 57.9751 28.3158 57.3481 27.7361 56.6345C27.6998 56.5841 27.6494 56.5352 27.5927 56.5037C27.5896 56.3226 27.4935 56.0705 27.4604 55.9287C27.3233 55.4199 27.1879 54.9111 27.054 54.4007C26.4979 52.3307 26.1135 50.2229 25.7638 48.1103C24.869 42.9259 24.4137 37.6769 23.6812 32.4688C23.3425 29.4064 23.4039 26.3234 23.2574 23.2515C23.2416 23.1539 23.2464 22.9207 23.218 22.7238C23.2669 22.7411 23.311 22.7569 23.3488 22.771C27.6447 24.5354 32.366 25.0364 36.9754 25.175C41.7282 25.2081 46.5015 24.715 51.1093 23.5209C53.3542 23.0058 55.5786 22.3678 57.6706 21.3989H57.6738Z" fill="#FCA1A9"/>
<path d="M57.2944 19.8992C57.3196 20.1639 56.9069 20.2017 56.8848 19.9355C56.8517 19.1809 56.8706 18.4247 56.8423 17.6686C56.8013 17.4354 57.0754 17.1251 57.2172 17.4496C57.329 18.2514 57.2361 19.0879 57.2944 19.8992Z" fill="#2B1D1A"/>
<path d="M55.6541 20.679C55.6809 20.9421 55.2698 20.983 55.2446 20.7168C55.1721 20.1276 55.1626 19.5321 55.139 18.9398C55.1768 18.7051 54.9358 17.7756 55.3926 17.9647C55.6856 18.3128 55.4982 19.7117 55.6116 20.2694C55.6226 20.4064 55.6352 20.5435 55.6526 20.679H55.6541Z" fill="#2B1D1A"/>
<path d="M54.9064 14.0406C54.993 13.7035 55.3884 13.5018 55.3632 13.9965C55.3254 14.2863 54.3991 15.4552 54.1108 15.1465C53.8367 14.8739 54.7961 14.4076 54.9064 14.0406Z" fill="#2B1D1A"/>
<path d="M54.0703 20.1607C54.0246 20.4553 54.3381 21.3217 53.9616 21.3816C53.8513 21.3926 53.7474 21.3076 53.7379 21.1957C53.7726 20.7972 53.3315 18.5618 53.8466 18.6263C54.1538 18.7697 53.9758 19.8015 54.0719 20.1607H54.0703Z" fill="#2B1D1A"/>
<path d="M52.9258 55.5916C53.1747 55.5727 53.2204 55.6845 53.1794 55.8326C53.1463 55.8594 53.1022 55.8767 53.0423 55.8799C52.9415 55.9067 52.8927 55.8169 52.8738 55.6609C52.8911 55.6373 52.9084 55.6136 52.9273 55.59L52.9258 55.5916Z" fill="#2B1D1A"/>
<path d="M53.0424 55.8799C53.1023 55.8768 53.148 55.861 53.1795 55.8327C53.1322 56.0059 52.9684 56.2249 52.8802 56.3352C49.9863 60.4468 43.0863 61.559 38.3587 61.537C35.7783 61.4818 33.3287 60.7036 31.0743 59.4859C30.2189 59.0826 29.3399 58.6998 28.6026 58.0964C28.3679 57.8538 27.4542 57.1433 27.3376 56.707C27.5424 56.7542 27.6007 56.6534 27.596 56.5038C27.6527 56.5368 27.7031 56.5841 27.7394 56.6345C28.3191 57.3481 29.0091 57.9751 29.8188 58.4178C31.2524 59.1031 32.6607 59.8718 34.1573 60.4137C37.7601 61.559 41.6102 61.1746 45.235 60.3334C47.2751 59.7931 49.3467 59.1235 50.9834 57.7404C51.7522 57.1827 52.3146 56.3982 52.8754 55.6609C52.8943 55.8169 52.9447 55.9067 53.044 55.8799H53.0424Z" fill="#2B1D1A"/>
<path d="M53.0108 11.2019C53.0124 13.1947 51.4922 14.8456 49.6239 15.3088C48.7149 14.6802 52.3492 14.8267 52.595 11.3578C52.5808 11.068 52.9163 10.7938 53.0108 11.2034V11.2019Z" fill="#2B1D1A"/>
<path d="M51.8333 19.2974C51.8648 18.6437 52.3169 18.9509 52.2554 19.4755C52.2066 19.8457 52.6461 22.0149 52.1719 21.9251C51.808 21.8684 52.0333 21.1138 51.9451 20.8302C51.9057 20.3198 51.86 19.8094 51.8333 19.2974Z" fill="#2B1D1A"/>
<path d="M50.4779 20.9641C50.4322 21.2556 50.7425 22.3252 50.3739 22.3362C50.2621 22.3473 50.1628 22.2622 50.1502 22.1503C50.0935 21.5549 50.0683 20.9578 50.0305 20.3608C50.0588 20.063 49.8288 19.4486 50.2463 19.3762C50.5503 19.5243 50.3928 20.6049 50.4779 20.9641Z" fill="#2B1D1A"/>
<path d="M50.1107 9.69896C50.3107 9.47684 50.4809 9.84547 50.4163 10.0282C50.3517 10.2708 50.2178 11.0679 49.8618 10.9309C49.6018 10.7844 49.8665 10.5008 49.92 10.3055C50.0209 10.1101 49.972 9.86595 50.1122 9.69896H50.1107Z" fill="#2B1D1A"/>
<path d="M49.1447 8.45918C49.2912 9.20904 49.1841 9.99041 48.691 10.6158C48.4941 10.8049 48.2136 11.4901 47.8954 11.279C47.5331 10.8411 49.2219 10.2299 48.7115 8.37096L48.8012 8.34891C48.828 8.43398 48.9667 8.48596 49.1447 8.45918Z" fill="#2B1D1A"/>
<path d="M49.1448 8.45911C48.9667 8.48431 48.8281 8.4339 48.8013 8.34883C48.7777 8.27322 48.8407 8.16924 49.0455 8.06842C49.0865 8.1976 49.1196 8.32835 49.1463 8.46068L49.1448 8.45911Z" fill="#2B1D1A"/>
<path d="M48.8021 8.34733L48.7123 8.36938C48.7028 8.33472 48.6918 8.29849 48.6808 8.26226C47.9593 5.8835 45.4072 5.73069 44.3502 3.58036C43.824 4.66576 42.9355 5.60939 41.9588 6.30726C41.7713 6.39706 41.565 6.55302 41.3523 6.57507C41.4106 6.40493 41.4689 6.23637 41.5287 6.06781C42.3463 5.6598 42.945 4.88159 43.5121 4.19316C43.6838 3.95844 43.8555 3.71741 43.9626 3.44488C44.0382 3.10145 44.3344 2.81474 44.5928 3.207C45.5647 5.13679 47.1653 5.27542 48.3877 6.835C48.6729 7.1926 48.9013 7.61794 49.0447 8.06692C48.8399 8.16774 48.7769 8.27171 48.8005 8.34733H48.8021Z" fill="#2B1D1A"/>
<path d="M48.7162 -0.918825C48.7272 -0.725059 48.4704 -0.504511 48.3759 -0.350128C47.0274 1.03302 45.0457 1.31973 43.1521 1.31973C43.1994 1.18425 43.245 1.0472 43.2923 0.911717C44.8897 0.902265 46.4918 0.651786 47.7773 -0.3328C48.0073 -0.523415 48.1948 -0.759716 48.3444 -1.01807C48.3444 -1.01807 48.346 -1.02122 48.3476 -1.0228C48.368 -1.0165 48.3869 -1.00862 48.4074 -1.00232C48.461 -0.983414 48.5082 -0.988139 48.5476 -1.00704C48.5996 -0.972386 48.6563 -0.945605 48.7162 -0.9204V-0.918825Z" fill="#2B1D1A"/>
<path d="M48.8174 15.9262C48.7544 16.1531 48.4755 16.1373 48.2944 16.1987C48.0423 16.2397 47.836 16.4492 47.5902 16.4728C47.4169 16.4476 47.3602 16.1956 47.5099 16.1026C47.7745 15.9546 48.6929 15.4615 48.8174 15.9278V15.9262Z" fill="#2B1D1A"/>
<path d="M48.539 21.9283C48.5012 22.2103 48.7706 22.7474 48.4035 22.8561C48.2948 22.8656 48.1877 22.7821 48.1814 22.6703C48.1373 22.0559 48.09 21.4352 48.0884 20.8192C48.1294 20.5373 47.9104 20.0757 48.2302 19.9213C48.6855 19.9686 48.4287 21.5266 48.539 21.9283Z" fill="#2B1D1A"/>
<path d="M48.348 -1.02121C48.348 -1.02121 48.3448 -1.01806 48.3448 -1.01649C48.1952 -0.759707 48.0077 -0.521832 47.7777 -0.331216C46.4922 0.653369 44.8901 0.903847 43.2927 0.913299C43.633 -0.0744371 43.9717 -1.06375 44.312 -2.05148C45.6825 -1.80888 47.0326 -1.48279 48.348 -1.01964V-1.02121Z" fill="#9DBDC2"/>
<path d="M46.7993 22.519C46.7883 22.7222 46.9332 23.083 46.6386 23.1303C46.53 23.1397 46.4244 23.0562 46.4149 22.9444C46.3708 22.3457 46.3441 21.7455 46.3031 21.1469C46.3346 20.8444 46.0574 20.271 46.4465 20.1434C46.8387 20.2348 46.7064 22.0811 46.7993 22.5174V22.519Z" fill="#2B1D1A"/>
<path d="M46.7095 12.2226C46.7063 12.399 46.5583 12.5188 46.4779 12.6637C46.1329 13.2072 45.8714 13.8089 45.4398 14.2942C44.6726 15.1133 43.458 15.6836 42.3253 15.5276C42.2151 15.5103 42.141 15.3953 42.1599 15.2882C42.2308 15.0046 42.5569 15.1811 42.757 15.1574C43.469 15.1007 44.1638 14.8046 44.7435 14.3934C45.4351 13.8609 45.7422 13.0181 46.218 12.314C46.2889 12.1218 46.7 11.8839 46.7111 12.2226H46.7095Z" fill="#2B1D1A"/>
<path d="M45.3943 7.56118C45.5818 8.68124 45.6337 10.0014 44.8902 10.9371C44.0301 11.887 42.7052 12.2399 41.4638 12.0225C41.1251 12.147 40.9613 12.5833 40.6336 12.7677C39.9373 13.3379 38.9606 13.5569 38.0816 13.3852C37.7051 13.3253 37.3916 13.1142 37.1049 12.8748L37.108 12.8779C35.999 12.8023 34.8852 13.4388 33.7683 13.0559C32.9413 12.8118 31.9 12.0572 32.2639 11.0789C32.3773 10.8804 32.4529 10.4031 32.7648 10.5102C32.8656 10.5575 32.9113 10.6835 32.8609 10.7843C31.8858 12.1801 34.0708 12.974 35.1719 12.7236C35.7643 12.6495 36.344 12.4431 36.9442 12.44C37.2703 12.4164 37.4767 12.6605 37.7224 12.826C38.2564 13.1032 38.8992 13.0701 39.4663 12.9189C39.9531 12.785 40.3784 12.4951 40.7234 12.1391C41.4985 10.9828 42.2531 12.2793 43.9592 11.1781C45.2116 10.5055 45.2116 8.89706 44.9957 7.66672C44.8303 7.17207 45.3203 7.02556 45.3943 7.56275V7.56118Z" fill="#2B1D1A"/>
<path d="M44.3762 20.4916C44.5873 20.5624 44.559 20.8239 44.5479 21.0004C44.5259 21.5549 44.5243 22.1094 44.5306 22.6639C44.4739 22.938 44.7338 23.6974 44.3809 23.7446C44.2691 23.7556 44.1698 23.6706 44.1572 23.5587C44.1683 23.1554 43.9194 20.4112 44.3762 20.4916Z" fill="#2B1D1A"/>
<path d="M44.0063 -2.10666C44.1087 -2.08933 44.2095 -2.072 44.3119 -2.0531C43.9716 -1.06536 43.633 -0.0760497 43.2927 0.911686C43.1462 0.911686 42.9997 0.911686 42.8547 0.908535C43.0359 0.372921 43.2171 -0.164269 43.4014 -0.698308C43.5447 -1.10632 43.6865 -1.51433 43.8299 -1.92234C43.8945 -1.98536 43.9527 -2.0468 44.0079 -2.10666H44.0063Z" fill="#2B1D1A"/>
<path d="M43.898 -2.12395C43.8744 -2.05621 43.8507 -1.99004 43.8271 -1.92231C43.0993 -1.2008 41.8375 -0.252449 41.7067 -0.0964908C41.5823 0.00118009 41.1711 0.358782 40.667 0.776246C40.4732 0.758917 40.2795 0.740013 40.0857 0.719534C41.0923 -0.0854634 42.0438 -0.928269 43.0331 -1.75059C43.1907 -1.89237 43.3451 -2.03888 43.4963 -2.18854C43.5073 -2.18696 43.5184 -2.18539 43.5278 -2.18381C43.6507 -2.16491 43.7736 -2.146 43.8964 -2.12395H43.898Z" fill="#2B1D1A"/>
<path d="M43.8283 -1.92229C43.685 -1.51427 43.5432 -1.10626 43.3998 -0.698251C43.2155 -0.162637 43.0344 0.372977 42.8532 0.908592C42.3255 0.89914 41.8025 0.867634 41.2936 0.832976C41.0857 0.814072 40.8762 0.795168 40.6682 0.776264C41.1723 0.3588 41.5835 0.00277358 41.7079 -0.0964726C41.8387 -0.252431 43.1005 -1.20078 43.8283 -1.92229Z" fill="#FFEFE3"/>
<path d="M43.2925 0.911675C43.2468 1.04715 43.1996 1.18421 43.1523 1.31969C43.0058 1.31969 42.8625 1.31811 42.7175 1.31496C42.7632 1.17948 42.8089 1.044 42.853 0.908524C42.9995 0.911674 43.146 0.91325 43.291 0.911675H43.2925Z" fill="#2B1D1A"/>
<path d="M43.4976 -2.18855C43.348 -2.03889 43.1936 -1.89396 43.0345 -1.75061C42.0452 -0.92828 41.0921 -0.0854753 40.087 0.719522C39.7042 0.681714 39.323 0.640756 38.9402 0.595071C39.3025 -0.457254 39.6696 -1.50643 40.0413 -2.5556C41.2008 -2.51622 42.3587 -2.38862 43.4961 -2.18855H43.4976Z" fill="#F25235"/>
<path d="M43.1527 1.31968C43.107 1.45516 43.0597 1.59064 43.0124 1.72769C42.8801 2.14358 42.7446 2.55632 42.6044 2.96906L42.5698 2.95803C42.5934 2.87769 42.5871 2.81468 42.543 2.77687C42.4059 2.71701 42.2957 2.77214 42.198 2.86666C42.3713 2.34995 42.5446 1.83324 42.7179 1.31496C42.8628 1.31811 43.0077 1.31968 43.1527 1.31968Z" fill="#2B1D1A"/>
<path d="M42.8533 0.908527C42.8076 1.04401 42.7619 1.17949 42.7178 1.31496C42.3854 1.30866 42.0577 1.29449 41.7379 1.27716C41.2291 1.2425 40.7219 1.19839 40.2146 1.14798C40.3706 1.02195 40.5234 0.895925 40.6699 0.776199C40.8778 0.795103 41.0873 0.814008 41.2953 0.832912C41.8041 0.867569 42.3271 0.899075 42.8549 0.908527H42.8533Z" fill="#2B1D1A"/>
<path d="M42.7844 23.2878C42.7529 23.5414 42.9986 24.0219 42.6473 24.1069C42.5355 24.118 42.4378 24.0329 42.4252 23.9195C42.3464 23.1381 42.3228 22.3536 42.296 21.5691C42.3354 21.2587 42.0755 20.6191 42.4803 20.5073C42.8458 20.5435 42.6741 22.8293 42.7844 23.2878Z" fill="#2B1D1A"/>
<path d="M42.5695 2.95804L42.6042 2.96906C42.2544 4.00564 41.8858 5.03591 41.5266 6.06933C41.462 6.10241 41.3974 6.13077 41.3313 6.15912C41.232 6.17803 41.1029 6.28515 41.0729 6.38912L40.9973 6.37494C41.0288 6.27885 41.0525 6.1985 41.0651 6.14179C41.3281 5.41241 41.5833 4.67988 41.8338 3.94577C42.2024 3.55194 42.5033 3.18331 42.5695 2.95961V2.95804Z" fill="#2B1D1A"/>
<path d="M42.5426 2.77691C42.5868 2.81472 42.5931 2.87773 42.5694 2.95808C42.5033 3.18177 42.2024 3.5504 41.8337 3.94424C41.9566 3.58506 42.0779 3.22588 42.1976 2.86671C42.2953 2.77219 42.4056 2.71705 42.5426 2.77691Z" fill="#2B1D1A"/>
<path d="M42.4803 19.6551C42.4834 19.7575 42.4094 19.8425 42.3117 19.8614C42.1006 19.8409 41.9683 19.7827 41.9762 19.6661C41.9919 19.5542 42.0549 19.4928 42.1447 19.4613C42.1857 19.4581 42.2266 19.4566 42.2676 19.455C42.3795 19.4503 42.4755 19.5448 42.4787 19.6551H42.4803Z" fill="#2B1D1A"/>
<path d="M42.7174 1.31496C42.5442 1.83167 42.3724 2.34838 42.1976 2.86667C42.0653 2.99585 41.955 3.20379 41.8321 3.30304C41.1673 4.0781 40.4222 4.77755 39.6739 5.4707C38.7555 6.28515 37.9032 7.16734 37.0116 8.01014C36.8336 8.18185 36.6492 8.34726 36.4602 8.50795C36.5768 7.99124 36.6508 7.37371 36.7469 7.16419C37.1691 5.67549 37.6874 4.21673 38.1978 2.7564C38.2325 2.65557 38.2671 2.55318 38.3018 2.45236C38.6925 2.3279 39.4864 1.73558 40.2127 1.14955C40.7199 1.19996 41.2272 1.24407 41.736 1.27873C42.0558 1.29448 42.3835 1.30866 42.7159 1.31654L42.7174 1.31496Z" fill="#FFEFE3"/>
<path d="M42.3108 19.8615C42.2998 19.8646 42.2888 19.8646 42.2777 19.8662C41.8288 19.8883 41.3798 19.9308 40.9293 19.9592C39.5382 19.9985 38.1441 20.1309 36.7546 19.9938C33.7788 19.8079 30.8077 19.559 27.9201 18.7824C25.6737 18.3917 23.4698 17.7616 21.4534 16.6793C20.8248 16.3564 20.4105 16.046 20.1584 15.7562C20.1726 15.6522 20.1884 15.5482 20.2041 15.4427C20.2356 15.3686 20.2341 15.2646 20.2073 15.1764L20.264 15.167C20.2924 15.2678 20.3554 15.3702 20.4609 15.4757C21.3021 16.287 22.4191 16.6966 23.4714 17.1456C24.9049 17.7789 26.444 18.0687 27.9721 18.3712C28.952 18.5807 29.9271 18.8281 30.9085 19.0266C32.2712 19.2376 33.6496 19.318 35.0202 19.4582C36.8129 19.6283 38.5962 19.6772 40.3905 19.5732C40.9749 19.5511 41.5578 19.4913 42.1407 19.4598C42.0509 19.4913 41.9879 19.5527 41.9721 19.6646C41.9627 19.7811 42.095 19.8394 42.3077 19.8599L42.3108 19.8615Z" fill="#2B1D1A"/>
<path d="M42.1976 2.86667C42.0763 3.22585 41.9565 3.58502 41.8337 3.9442C41.1878 4.63262 40.3308 5.39823 40.1465 5.5983C39.217 6.41905 38.349 7.30439 37.4511 8.15822C37.0714 8.47644 36.7327 8.93329 36.279 9.12548C36.2711 9.12548 36.2648 9.12548 36.2585 9.12548C36.3405 8.97897 36.4051 8.75528 36.4618 8.5111C36.6508 8.35042 36.8351 8.18658 37.0131 8.01329C37.9048 7.17206 38.757 6.2883 39.6754 5.47385C40.4222 4.7807 41.1689 4.07968 41.8337 3.30619C41.955 3.20694 42.0652 3.00057 42.1991 2.86982L42.1976 2.86667Z" fill="#2B1D1A"/>
<path d="M41.5281 6.06934C41.4683 6.2379 41.41 6.40804 41.3517 6.5766C41.2871 6.5829 41.2241 6.57817 41.1595 6.55612C41.0728 6.51516 41.0539 6.45215 41.0728 6.38756C41.1028 6.28359 41.232 6.17804 41.3312 6.15756C41.3974 6.13078 41.4635 6.10085 41.5265 6.06776L41.5281 6.06934Z" fill="#2B1D1A"/>
<path d="M41.3524 6.57661C41.324 6.65853 41.2957 6.73887 41.2689 6.82079C41.0767 7.39579 40.8813 7.97079 40.7175 8.55366C40.6261 8.7427 40.634 9.06092 40.5379 9.26571C40.4844 9.13969 40.3032 9.06407 40.1898 9.20112C40.185 9.20742 40.1803 9.21373 40.1756 9.22003C40.1457 8.6025 40.7758 7.06497 41.0011 6.37497L41.0767 6.38915C41.0578 6.45374 41.0767 6.51675 41.1633 6.55771C41.2279 6.57976 41.2925 6.58449 41.3555 6.57819L41.3524 6.57661Z" fill="#2B1D1A"/>
<path d="M41.8342 3.94425C41.5838 4.67835 41.3301 5.41089 41.0655 6.14027C41.0529 6.19855 41.0292 6.2789 40.9977 6.37342C40.7725 7.06184 40.1439 8.59937 40.1723 9.21847C39.2649 10.3496 36.9239 10.6347 36.1882 9.22635C36.2134 9.19957 36.2371 9.16334 36.2591 9.12395C36.2591 9.12395 36.2733 9.12395 36.2796 9.12395C36.7333 8.93334 37.072 8.47492 37.4517 8.1567C38.3496 7.30287 39.2176 6.41753 40.1471 5.59678C40.3298 5.39671 41.1868 4.63267 41.8342 3.94267V3.94425Z" fill="#F25235"/>
<path d="M40.6967 15.4599C40.8732 15.5528 41.1945 15.4032 41.2292 15.6836C41.215 16.0428 40.7046 15.9073 40.4872 15.8159C40.4352 15.7923 40.3943 15.7671 40.3596 15.7403C40.3659 15.7419 40.3722 15.7434 40.3785 15.745C40.7897 15.8395 40.7456 15.5576 40.5786 15.4C40.6164 15.4142 40.6574 15.4331 40.6983 15.4583L40.6967 15.4599Z" fill="#2B1D1A"/>
<path d="M40.9001 10.1322C40.9852 10.2047 40.9962 10.337 40.9238 10.4221C40.6433 10.7056 40.2826 11.216 39.8352 11.0963C39.4902 10.8348 40.3062 10.5906 40.4196 10.3685C40.5488 10.2425 40.6953 9.96994 40.9017 10.1322H40.9001Z" fill="#2B1D1A"/>
<path d="M40.8719 22.7443C40.8246 23.0294 41.094 23.7698 40.7301 23.8439C40.6214 23.8533 40.5143 23.7698 40.508 23.658C40.5552 23.2327 40.1457 20.6144 40.6592 20.6932C40.8766 20.783 40.8215 21.0555 40.8231 21.243C40.8231 21.744 40.8388 22.2449 40.8719 22.7443Z" fill="#2B1D1A"/>
<path d="M40.5768 15.4016C40.7438 15.5592 40.7879 15.8412 40.3768 15.7466C40.3705 15.7451 40.3642 15.7435 40.3579 15.7419C40.1074 15.5482 40.2681 15.2914 40.5768 15.4016Z" fill="#2B1D1A"/>
<path d="M40.536 9.26574C40.5628 9.32717 40.5581 9.40122 40.5014 9.4658C39.8114 10.2944 38.7102 10.693 37.6469 10.5512C35.8415 10.3779 35.5564 8.93807 35.9203 8.9869C35.9093 9.15546 35.9282 9.27204 35.9959 9.29724C36.0684 9.31615 36.1314 9.28937 36.1881 9.22635C36.9254 10.6347 39.2663 10.3496 40.1721 9.21848C40.1768 9.33348 40.2052 9.41697 40.2635 9.45635C40.4037 9.44848 40.484 9.37286 40.5344 9.26416L40.536 9.26574Z" fill="#2B1D1A"/>
<path d="M40.5772 15.4016C40.27 15.2914 40.1077 15.5481 40.3582 15.7419C40.2211 15.6978 40.0951 15.5733 40.1692 15.4221C40.2889 15.2441 40.4622 15.2929 40.5772 15.4016Z" fill="#2B1D1A"/>
<path d="M40.1878 9.19952C40.3012 9.06404 40.4824 9.13966 40.5359 9.26411C40.4855 9.37281 40.4052 9.44843 40.265 9.4563C40.2067 9.41692 40.1783 9.33343 40.1736 9.21843C40.1783 9.21213 40.183 9.20583 40.1878 9.19952Z" fill="#2B1D1A"/>
<path d="M40.6686 0.77624C40.5236 0.897541 40.3708 1.02199 40.2133 1.14802C40.0148 1.12912 39.8179 1.10706 39.6194 1.08501C39.7706 0.968433 39.9218 0.850282 40.0715 0.730557C40.0762 0.727406 40.081 0.722679 40.0857 0.719528C40.2794 0.740008 40.4732 0.758912 40.667 0.77624H40.6686Z" fill="#2B1D1A"/>
<path d="M40.0868 0.719549C40.0868 0.719549 40.0773 0.727426 40.0726 0.730577C39.9229 0.850303 39.7717 0.968453 39.6205 1.08503C39.3479 1.0551 39.077 1.02359 38.8044 0.988932C38.8501 0.856604 38.8958 0.725849 38.9399 0.593521C39.3212 0.639206 39.704 0.680166 40.0868 0.717974V0.719549Z" fill="#2B1D1A"/>
<path d="M39.6209 1.08502C39.8179 1.10708 40.0163 1.12756 40.2148 1.14803C39.4886 1.73406 38.6962 2.32796 38.304 2.45084C38.3685 2.2618 38.4331 2.07118 38.4977 1.88214C38.6805 1.76242 38.8616 1.64269 39.0396 1.51666C39.2366 1.37646 39.4287 1.23153 39.6209 1.08502Z" fill="#2B1D1A"/>
<path d="M39.6034 -2.56659C39.7499 -2.56659 39.8964 -2.56186 40.0413 -2.55556C39.6695 -1.50639 39.3025 -0.457213 38.9401 0.595112C38.8094 0.580934 38.6802 0.565179 38.551 0.549426C38.6093 0.384016 38.666 0.218606 38.7243 0.0531959C39.0094 -0.822691 39.3025 -1.69543 39.6034 -2.56501V-2.56659Z" fill="#2B1D1A"/>
<path d="M33.6625 -1.77109C35.5875 -2.35554 37.5961 -2.59657 39.6047 -2.56664C39.3038 -1.69705 39.0108 -0.822741 38.7256 0.0515706C38.6689 0.216981 38.6106 0.382392 38.5523 0.547802C37.5662 0.426501 36.5832 0.279994 35.608 0.0956798C34.6329 -0.162675 33.5396 -0.439935 32.8969 -1.27801C32.8591 -1.33788 32.8197 -1.38356 32.7834 -1.41664C32.8213 -1.43712 32.8591 -1.45603 32.8969 -1.47493C32.9174 -1.48596 32.9363 -1.49856 32.9504 -1.51589C33.1915 -1.58048 33.4183 -1.71596 33.6641 -1.77267L33.6625 -1.77109Z" fill="#9DBDC2"/>
<path d="M38.805 0.990524C39.0775 1.02518 39.3485 1.05669 39.621 1.08662C39.4304 1.23313 39.2366 1.37806 39.0397 1.51826C38.8617 1.64587 38.6805 1.76559 38.4978 1.88374C38.6002 1.586 38.701 1.28826 38.8034 0.990524H38.805Z" fill="#F25235"/>
<path d="M38.9404 0.595079C38.8947 0.727407 38.849 0.858159 38.8049 0.990487C38.6741 0.974734 38.5449 0.957404 38.4158 0.940076C38.4615 0.810898 38.5071 0.680146 38.5528 0.549393C38.682 0.565146 38.8112 0.580901 38.9419 0.595079H38.9404Z" fill="#2B1D1A"/>
<path d="M38.7969 23.1476C38.7496 23.4296 39.0505 24.181 38.6803 24.2409C38.5685 24.2519 38.4708 24.1653 38.4566 24.0534C38.3779 23.2941 38.3463 22.5301 38.2959 21.7676C38.3085 21.5408 38.1069 20.6097 38.5606 20.8397C38.6976 20.9595 38.6677 21.1517 38.6819 21.3155C38.7134 21.9267 38.7544 22.5364 38.7953 23.146L38.7969 23.1476Z" fill="#2B1D1A"/>
<path d="M38.4139 0.940033C38.5431 0.957362 38.6739 0.973116 38.8031 0.990445C38.7007 1.28818 38.5983 1.58592 38.4974 1.88366C38.3714 1.96558 38.2454 2.04592 38.1194 2.12784C38.0831 2.14989 38.0579 2.18455 38.0453 2.22393L37.9666 2.19558C38.1162 1.77654 38.2659 1.35907 38.4139 0.940033Z" fill="#2B1D1A"/>
<path d="M35.6069 0.0972075C36.582 0.281522 37.565 0.428027 38.5512 0.549328C38.5055 0.680081 38.4598 0.810834 38.4141 0.940011C38.203 0.91323 37.9935 0.8833 37.7824 0.854944C36.1283 0.610767 34.2915 0.475288 32.9477 -0.622721C32.6326 -0.847994 32.5066 -1.0906 32.4924 -1.26073C32.5885 -1.31429 32.6862 -1.36628 32.7807 -1.41512C32.8185 -1.38203 32.8563 -1.33635 32.8941 -1.27649C33.5353 -0.438407 34.6302 -0.161148 35.6053 0.0972075H35.6069Z" fill="#2B1D1A"/>
<path d="M38.4978 1.88367C38.4332 2.07271 38.3686 2.26332 38.304 2.45236C38.1811 2.49017 38.0976 2.48229 38.0693 2.41455C38.0315 2.35942 38.0236 2.28695 38.0456 2.22394C38.0598 2.18613 38.0834 2.15147 38.1197 2.12784C38.2457 2.04593 38.3717 1.96558 38.4978 1.88367Z" fill="#2B1D1A"/>
<path d="M38.3038 2.45244C38.2691 2.55327 38.2344 2.65566 38.1998 2.75649C37.691 4.21682 37.1711 5.67716 36.7489 7.16428C36.6512 7.3738 36.5788 7.98975 36.4622 8.50804C36.3598 8.59468 36.2558 8.68133 36.1519 8.76639C36.0195 8.87509 36.0983 9.10194 36.259 9.12242C36.2369 9.16338 36.2133 9.19804 36.1881 9.22482C36.1723 9.19646 36.1582 9.1681 36.144 9.13817C36.0542 9.03893 35.9786 8.99167 35.9187 8.98537C35.9518 8.52694 36.2117 7.67941 36.3204 7.23359C36.5347 7.07291 36.6497 6.90277 36.5536 6.74681C36.5205 6.72003 36.489 6.7027 36.4575 6.69483C36.9049 5.17778 37.4342 3.68593 37.9666 2.19566L38.0454 2.22402C38.0234 2.28703 38.0312 2.3595 38.069 2.41464C38.099 2.48237 38.1809 2.49025 38.3038 2.45244Z" fill="#2B1D1A"/>
<path d="M37.7826 0.855003C37.9937 0.884934 38.2032 0.913289 38.4143 0.94007C38.2662 1.35911 38.1166 1.77657 37.9669 2.19561C37.436 3.68588 36.9051 5.17773 36.4577 6.69478C36.2356 6.63491 36.034 6.97676 35.8197 7.04923C35.5172 7.23984 35.1518 7.37217 34.8068 7.48087C34.1703 7.68881 33.4945 7.43203 32.8439 7.53443C31.9192 7.71402 31.0795 8.36306 30.6479 9.20271C28.7512 8.12676 26.1629 9.51935 26.6197 11.8162C26.6166 11.8209 26.6134 11.8241 26.6103 11.8304C25.8148 11.8272 25.0098 11.4003 24.2268 11.6728C22.8484 12.2699 22.4199 14.05 22.8137 15.43C22.6877 15.3434 22.5648 15.252 22.4435 15.1575C22.2687 14.9716 22.1096 14.8613 21.9851 14.8109C22.1663 14.6644 22.0213 14.0201 22.1033 13.8121C22.3537 12.3565 22.757 10.9277 23.2753 9.53668C25.12 5.46444 28.151 1.49774 31.9318 -0.939306C32.1066 -1.0417 32.302 -1.15513 32.4973 -1.26382C32.5115 -1.09369 32.6375 -0.852662 32.9526 -0.625814C34.2964 0.473771 36.1332 0.60925 37.7873 0.851851L37.7826 0.855003Z" fill="#BECDCF"/>
<path d="M36.6606 23.0026C36.6039 23.2878 36.8906 24.1731 36.5283 24.2094C36.418 24.2204 36.3156 24.1353 36.3046 24.0235C36.3203 23.5981 35.9675 20.5168 36.4889 20.657C36.8166 20.8696 36.5551 21.5502 36.6291 21.8983C36.637 22.267 36.648 22.634 36.6606 23.0026Z" fill="#2B1D1A"/>
<path d="M36.5547 6.74838C36.6508 6.90434 36.5374 7.07448 36.3215 7.23516C36.3452 7.13591 36.3625 7.05557 36.3672 7.00516C36.3971 6.90276 36.4271 6.79879 36.457 6.6964C36.4885 6.70427 36.5216 6.7216 36.5531 6.74838H36.5547Z" fill="#2B1D1A"/>
<path d="M36.4587 6.69478C36.4288 6.79718 36.3988 6.90115 36.3689 7.00355C36.3642 7.05396 36.3469 7.1343 36.3232 7.23355C35.8475 7.59115 34.8802 7.90622 34.6156 7.94717C33.4388 8.03697 32.6889 7.64471 31.6791 8.56786C31.5263 8.68758 31.3956 8.81046 31.2774 8.96327C31.101 9.16963 31.0427 9.49415 30.7875 9.62176C30.5969 9.69107 30.4299 9.53511 30.2582 9.47682C29.5004 9.14443 28.6608 9.13813 27.9676 9.61073C26.5624 10.3952 27.1847 11.5673 26.9846 12.0415C26.9185 11.865 26.8381 11.739 26.7168 11.739C26.6759 11.7611 26.6444 11.7878 26.6207 11.8194C26.1639 9.52251 28.7522 8.12991 30.6489 9.20587C31.0821 8.36621 31.9217 7.71717 32.8449 7.53759C33.4955 7.43519 34.1713 7.69197 34.8078 7.48402C35.1512 7.37533 35.5182 7.243 35.8207 7.05238C36.0349 6.97992 36.2382 6.63807 36.4587 6.69793V6.69478Z" fill="#2B1D1A"/>
<path d="M36.3661 10.7497C36.6213 10.8269 36.4906 11.227 36.2385 11.1404C35.8573 11.0427 35.4871 10.8757 35.1862 10.6205C34.9893 10.411 34.7042 10.192 34.6695 9.89271C34.6632 9.77928 34.7514 9.66586 34.8711 9.71942C35.2161 9.91949 35.369 10.3669 35.7691 10.5213C35.9566 10.6252 36.1598 10.6946 36.3661 10.7497Z" fill="#2B1D1A"/>
<path d="M36.4625 8.508C36.4073 8.75375 36.3412 8.97587 36.2592 9.12238C36.0986 9.1019 36.0198 8.87347 36.1521 8.76635C36.2561 8.68128 36.3601 8.59464 36.4625 8.508Z" fill="#2B1D1A"/>
<path d="M36.2399 16.6021C36.4227 17.0085 34.4283 17.0951 34.1621 17.0684C33.2799 16.999 32.4702 16.5627 31.7061 16.1452C31.0193 15.8065 30.5451 15.2236 30.2899 14.51C28.8579 14.7069 27.1282 14.1587 26.717 12.6291C26.6934 12.5204 26.6367 12.3802 26.5989 12.2415C26.6383 12.2415 26.6776 12.24 26.7186 12.2368C26.862 12.21 26.9423 12.1407 26.9848 12.0399C27.1046 12.3613 27.1739 12.848 27.3503 13.0371C28.0702 14.2139 29.3352 14.0799 30.4931 14.1445C30.6932 14.2674 30.7389 14.5242 30.8381 14.7211C31.0571 15.2851 31.5864 15.6096 32.0921 15.89C33.0121 16.402 34.0376 16.8305 35.1073 16.6099C35.3971 16.6241 36.136 16.246 36.2415 16.6005L36.2399 16.6021Z" fill="#2B1D1A"/>
<path d="M36.1456 9.1397C36.1597 9.16963 36.1723 9.19799 36.1897 9.22634C36.1329 9.28936 36.0699 9.31614 35.9975 9.29723C35.9282 9.27203 35.9093 9.15545 35.9219 8.98689C35.9817 8.99477 36.0573 9.04045 36.1471 9.1397H36.1456Z" fill="#2B1D1A"/>
<path d="M34.4711 22.5175C34.4207 22.8136 34.7437 23.7604 34.3656 23.8014C34.2553 23.8108 34.1513 23.7273 34.1419 23.6139C34.1561 23.1949 33.7544 20.4553 34.238 20.5199C34.5357 20.6491 34.3845 21.0666 34.427 21.3202C34.4349 21.7188 34.4507 22.1189 34.4711 22.5159V22.5175Z" fill="#2B1D1A"/>
<path d="M32.9478 -1.51434C32.9336 -1.49858 32.9147 -1.48441 32.8943 -1.47338C32.8565 -1.45447 32.8187 -1.43557 32.7808 -1.41509C32.6154 -1.5616 32.4752 -1.46235 32.4926 -1.26071C32.2972 -1.15201 32.1019 -1.04016 31.927 -0.936189C28.1462 1.50086 25.1153 5.46756 23.2705 9.5398C22.7522 10.9308 22.349 12.3597 22.0985 13.8153C22.0166 14.0232 22.1615 14.6659 21.9803 14.814C21.8921 14.7778 21.8212 14.7715 21.7724 14.7888C21.6747 14.5935 21.6416 14.3399 21.6527 14.0547C21.7346 14.0201 21.8102 13.9759 21.8716 13.9082C21.9614 13.7538 21.8716 13.6751 21.6889 13.664C21.8086 12.8102 22.1741 11.7988 22.2875 11.2034C23.6061 6.44426 28.0154 0.738394 32.3492 -1.64982C32.4673 -1.7018 32.6154 -1.82153 32.7493 -1.84988C32.7462 -1.84831 32.743 -1.84516 32.7399 -1.84358C32.5603 -1.69708 32.5997 -1.48126 32.8391 -1.48913C32.8754 -1.49543 32.9116 -1.50331 32.9478 -1.51276V-1.51434Z" fill="#2B1D1A"/>
<path d="M32.4086 22.4166C32.3488 22.7096 32.6559 23.7257 32.2905 23.7336C32.1786 23.7446 32.081 23.6596 32.0683 23.5477C32.0463 23.1523 31.799 20.323 32.2968 20.4081C32.6355 20.4979 32.3251 22.0338 32.4086 22.4166Z" fill="#2B1D1A"/>
<path d="M30.6005 22.2874C30.5548 22.5615 30.84 23.0782 30.4729 23.1791C30.3611 23.1901 30.2618 23.105 30.2508 22.9916C30.2319 22.7364 29.8995 19.4077 30.5533 20.1528C30.6446 20.8444 30.5265 21.5817 30.6005 22.2874Z" fill="#2B1D1A"/>
<path d="M28.6391 19.7386C28.7541 19.8819 28.6943 20.0694 28.6895 20.2364C28.6533 20.8303 28.6407 21.4714 28.647 22.048C28.5903 22.3174 28.8518 22.9018 28.4942 22.9822C28.3839 22.9932 28.2815 22.9081 28.2705 22.7963C28.2736 22.508 28.0326 19.162 28.6391 19.7386Z" fill="#2B1D1A"/>
<path d="M27.596 56.5037C27.6007 56.6534 27.5424 56.7542 27.3376 56.7069C27.314 56.6187 27.3235 56.5415 27.377 56.4801C27.4526 56.4502 27.5283 56.4644 27.596 56.5037Z" fill="#2B1D1A"/>
<path d="M27.5963 56.5037C27.5286 56.4659 27.453 56.4501 27.3773 56.4801C27.3238 56.5399 27.3143 56.6187 27.338 56.7069C27.3238 56.7038 27.3112 56.7006 27.297 56.6959C25.561 51.2121 24.9009 45.3865 24.1873 39.6791C23.888 36.7742 23.3634 33.896 23.1476 30.9832C22.9428 28.5714 22.9806 26.1517 22.8766 23.7383C22.905 23.3633 22.7411 22.9427 22.8388 22.582C22.9869 22.6371 23.1161 22.6844 23.2216 22.7237C23.25 22.9207 23.2468 23.1522 23.261 23.2515C23.4075 26.325 23.3476 29.4079 23.6847 32.4688C24.4157 37.6768 24.8726 42.9259 25.7673 48.1103C26.1171 50.2228 26.5015 52.3306 27.0575 54.4006C27.1914 54.911 27.3269 55.4199 27.464 55.9287C27.4971 56.0705 27.5932 56.3225 27.5963 56.5037Z" fill="#2B1D1A"/>
<path d="M26.8956 22.341C26.9224 22.6041 26.5081 22.6435 26.486 22.3773C26.4655 21.9126 26.0985 19.099 26.6372 19.0864C26.9728 19.1967 26.6971 20.3215 26.7775 20.6775C26.7853 21.2336 26.8357 21.7881 26.8956 22.3395V22.341Z" fill="#2B1D1A"/>
<path d="M26.8228 16.2318C26.8685 16.402 26.6542 16.5548 26.5109 16.4492C26.2305 16.2697 25.2931 15.3859 25.9122 15.1795C26.1674 15.326 26.1958 15.6884 26.4447 15.8616C26.5581 15.9955 26.7598 16.0633 26.8228 16.2303V16.2318Z" fill="#2B1D1A"/>
<path d="M26.9834 12.0398C26.9408 12.1407 26.8621 12.21 26.7171 12.2368C26.6777 12.2399 26.6384 12.2415 26.5974 12.2415C26.5564 12.0903 26.536 11.9406 26.6084 11.8319H26.621C26.621 11.8319 26.6195 11.8224 26.6179 11.8177C26.6415 11.7862 26.6714 11.7594 26.714 11.7374C26.8353 11.7374 26.9156 11.865 26.9818 12.0398H26.9834Z" fill="#2B1D1A"/>
<path d="M26.6195 11.8178C26.6195 11.8178 26.6211 11.8272 26.6227 11.8319H26.6101C26.6101 11.8319 26.6164 11.8225 26.6195 11.8178Z" fill="#2B1D1A"/>
<path d="M26.5972 12.24C25.8773 12.2479 25.1652 11.8887 24.4532 12.0305C23.1598 12.5173 22.87 14.2281 23.2339 15.4222C23.2591 15.5419 23.33 15.6569 23.3552 15.7782C23.1709 15.6695 22.9881 15.5529 22.8117 15.4316C22.4178 14.0516 22.8479 12.2715 24.2248 11.6745C25.0077 11.4019 25.8127 11.8288 26.6082 11.832C26.5358 11.9407 26.5547 12.0904 26.5972 12.2416V12.24Z" fill="#2B1D1A"/>
<path d="M24.9247 18.7303C25.0539 18.8658 25.0019 19.0627 25.0019 19.2297C24.9814 19.8346 24.9925 20.4427 25.0004 21.0477C24.9468 21.3186 25.1957 21.8322 24.8412 21.9298C24.7325 21.9409 24.6254 21.8558 24.6191 21.744C24.6538 21.4383 24.3293 18.2231 24.9263 18.7303H24.9247Z" fill="#2B1D1A"/>
<path d="M23.3563 15.7782C23.3674 15.8302 23.3705 15.8822 23.3563 15.9373C23.3406 16.0933 23.1799 16.087 23.0759 16.0176C23.0492 16.0003 23.0271 15.9798 23.0113 15.9562C22.9294 15.7908 22.8633 15.6143 22.8113 15.4316C22.9893 15.5545 23.1705 15.6695 23.3548 15.7782H23.3563Z" fill="#2B1D1A"/>
<path d="M22.9659 18.1113C23.1912 18.19 23.1439 18.472 23.1376 18.6595C23.1171 19.2691 23.114 19.8788 23.1077 20.4884C23.0415 20.7673 23.2778 21.3848 22.9233 21.4715C22.8162 21.4809 22.7028 21.3974 22.6996 21.284C22.687 20.4806 22.7028 19.6756 22.7186 18.8706C22.7532 18.6264 22.6351 18.1695 22.9643 18.1097L22.9659 18.1113Z" fill="#2B1D1A"/>
<path d="M23.1269 22.2576L23.0734 22.4041C23.0261 22.3868 22.9647 22.3994 22.8843 22.4576C22.8654 22.497 22.8512 22.538 22.8402 22.5789C21.8288 22.2024 19.9999 21.4668 19.9006 20.8603C19.9889 20.8524 20.0739 20.7972 20.0897 20.7011C20.348 20.7484 20.6127 21.1233 20.8411 21.2147C21.5595 21.6542 22.3408 21.963 23.1269 22.256V22.2576Z" fill="#2B1D1A"/>
<path d="M23.0718 22.4056C23.1568 22.4387 23.1994 22.571 23.2214 22.7223C23.1159 22.6829 22.9867 22.6356 22.8386 22.5805C22.8497 22.5395 22.8638 22.4986 22.8827 22.4592C22.9615 22.4009 23.0229 22.3883 23.0718 22.4056Z" fill="#2B1D1A"/>
<path d="M23.0777 16.0176L23.0447 16.0712C22.6697 15.8443 22.309 15.5891 21.9671 15.304C21.671 15.044 21.6426 14.8314 21.7749 14.7857C21.7812 14.7967 21.7875 14.8093 21.7938 14.8203C21.8805 14.8534 21.9403 14.8456 21.9829 14.8109C22.1073 14.8613 22.2664 14.97 22.4413 15.1575C22.5626 15.252 22.6871 15.3418 22.8115 15.43C22.8635 15.6143 22.9312 15.7908 23.0116 15.9546C23.0273 15.9782 23.051 15.9987 23.0762 16.016L23.0777 16.0176Z" fill="#2B1D1A"/>
<path d="M21.9831 14.8125C21.9406 14.8471 21.8791 14.855 21.794 14.8219C21.7877 14.8109 21.7814 14.7999 21.7751 14.7873C21.824 14.7699 21.8949 14.7762 21.9831 14.8125Z" fill="#2B1D1A"/>
<path d="M21.6903 13.6641C21.873 13.6752 21.9628 13.7523 21.873 13.9083C21.8116 13.976 21.736 14.0201 21.6541 14.0548C21.6588 13.9304 21.6714 13.7996 21.6903 13.6657V13.6641Z" fill="#2B1D1A"/>
<path d="M19.8596 15.2157C19.6296 14.2579 21.1183 13.6325 21.6902 13.664C21.6713 13.7979 21.6587 13.9287 21.6539 14.0531C21.4775 14.1256 21.2664 14.1476 21.0978 14.2311C20.6489 14.3713 20.1448 14.7368 20.2692 15.17L20.2125 15.1795C20.1684 15.0314 20.0566 14.929 19.9116 15.085C19.8927 15.1275 19.877 15.1716 19.8612 15.2157H19.8596Z" fill="#2B1D1A"/>
<path d="M21.4081 17.2779C21.6334 17.3771 21.5672 17.6622 21.5641 17.8576C21.5342 18.483 21.5405 19.1115 21.5405 19.737C21.5074 20.0694 21.6161 20.4364 21.5011 20.7404C21.394 20.8775 21.145 20.8035 21.1387 20.627C21.1923 20.2001 20.9229 17.1282 21.4081 17.2779Z" fill="#2B1D1A"/>
<path d="M20.2109 15.1796C20.2377 15.2678 20.2377 15.3717 20.2078 15.4458C20.192 15.5498 20.1763 15.6537 20.1621 15.7593C19.9967 15.5687 19.9006 15.3875 19.8596 15.2158C19.8754 15.1717 19.8927 15.1276 19.91 15.085C20.055 14.9307 20.1668 15.033 20.2109 15.1796Z" fill="#2B1D1A"/>
<path d="M20.0901 20.6349C20.0932 20.6601 20.0932 20.6822 20.0901 20.7027C20.0271 20.6916 19.9656 20.6995 19.9058 20.7342C19.8947 20.7751 19.8932 20.8177 19.901 20.8618C19.8034 20.8697 19.701 20.8177 19.6852 20.6901C19.5529 19.4818 19.5718 18.2625 19.6254 17.0495C19.6994 16.4508 19.6632 15.7845 19.8617 15.2158C19.9026 15.3859 19.9987 15.5686 20.1641 15.7593C20.0019 16.9534 19.9798 18.1601 20.005 19.3636C20.0192 19.789 20.0428 20.2127 20.0917 20.6349H20.0901Z" fill="#2B1D1A"/>
<path d="M19.9039 20.7342C19.9654 20.6995 20.0268 20.6916 20.0883 20.7027C20.0725 20.7972 19.9874 20.8539 19.8992 20.8618C19.8913 20.8192 19.8929 20.7751 19.9039 20.7342Z" fill="#2B1D1A"/>
<path d="M14.2155 45.9995C15.7908 46.2925 16.4462 43.9248 16.443 42.7196C16.4336 41.9792 16.1421 41.0025 15.2095 41.2687C15.1985 41.2703 15.1859 41.2719 15.1717 41.2735C15.1339 41.1537 15.0866 41.0387 15.0331 40.9253C15.271 40.8009 15.7089 40.8497 15.9042 40.8985C17.8356 41.6815 16.4981 46.7793 14.3037 46.4138C14.1509 46.3886 13.9934 46.3366 13.8327 46.2547C13.7492 46.2121 13.6673 46.1176 13.6216 46.0168C13.7035 45.9821 13.8327 45.9097 13.9666 45.8199C13.9682 45.8246 13.9713 45.8293 13.9729 45.8341C14.0138 45.9065 14.0643 45.9821 14.2155 46.001V45.9995Z" fill="#2B1D1A"/>
<path d="M16.4428 42.7196C16.4459 43.9247 15.789 46.2924 14.2153 45.9994C14.064 45.979 14.012 45.9049 13.9727 45.8324C13.9695 45.8277 13.9679 45.823 13.9663 45.8183C14.3035 45.5898 14.6784 45.2417 14.4626 45.0621C14.2074 44.8668 13.9726 45.4181 13.7379 45.5158C13.1346 45.8529 12.4005 46.0341 11.6994 45.9805C10.8992 45.8892 10.1099 45.7159 9.33643 45.4685C9.21041 45.4481 9.03082 45.3535 8.85596 45.2874C9.09068 45.1298 9.2813 44.914 9.3963 44.632C9.46089 44.4761 9.52075 44.139 9.41363 43.9814C9.49869 43.9184 9.57904 43.8491 9.65308 43.7735C10.1162 43.3434 10.0532 42.6896 9.84527 42.3998C10.0249 42.2738 10.1871 42.121 10.3242 41.9445C10.4975 41.7114 10.5195 41.4184 10.436 41.1553C10.4565 41.1994 10.4754 41.2403 10.4943 41.2813C10.9575 42.1178 11.5986 42.8582 12.4272 43.345C12.4525 43.3607 12.4777 43.3718 12.5029 43.3749C12.6824 43.4049 12.8211 43.1323 12.6352 43.0173C12.3548 42.8346 12.0744 42.6487 11.8318 42.4171C11.2032 41.7964 10.7101 41.0277 10.4644 40.177C10.4596 40.1092 10.4234 40.0258 10.3762 39.958C10.4959 39.5815 10.4329 39.1814 10.1966 38.871C10.2281 38.8285 10.2486 38.7765 10.2564 38.7308C10.2297 37.5367 10.4786 36.1378 11.7514 35.6826C12.4115 35.4132 12.9329 35.8432 12.84 36.5395C12.8006 36.8483 12.6494 37.0909 12.5407 37.3934C11.9735 38.5071 12.9329 39.1625 13.6954 39.8021C14.1097 40.2006 14.513 40.6779 14.7383 41.2167C14.8911 41.5853 14.962 41.9807 14.8926 42.3966C14.8643 42.6896 14.8092 42.9795 14.7209 43.2615C14.691 43.3623 14.7461 43.4726 14.8485 43.5041C14.8596 43.5072 14.869 43.5104 14.8785 43.512C15.225 43.5703 15.2613 42.4691 15.2944 42.2171C15.318 41.8831 15.2723 41.568 15.1746 41.2703C15.1872 41.2703 15.1998 41.2687 15.2124 41.2655C16.145 40.9993 16.4365 41.976 16.4459 42.7164L16.4428 42.7196Z" fill="#FFEFE3"/>
<path d="M15.291 42.2202C15.2564 42.4707 15.2217 43.5718 14.8751 43.5151C14.8657 43.5135 14.8562 43.5104 14.8452 43.5072C14.7428 43.4757 14.6877 43.3655 14.7176 43.2646C14.8058 42.9827 14.8609 42.6928 14.8893 42.3998C14.957 41.9823 14.8893 41.5869 14.7349 41.2199L14.894 41.1663C14.9413 41.2561 15.0705 41.2829 15.1729 41.275C15.2705 41.5727 15.3162 41.8878 15.2926 42.2218L15.291 42.2202Z" fill="#2B1D1A"/>
<path d="M14.4612 45.0622C14.6786 45.2417 14.3021 45.5899 13.965 45.8183C13.924 45.7427 13.8894 45.6718 13.7555 45.6734C13.5649 45.7143 13.5554 45.8719 13.62 46.0152C13.6042 46.0231 13.5885 46.0278 13.5775 46.031C12.7362 46.4091 11.8745 46.4248 11.0112 46.2815C10.7104 46.231 10.411 46.1617 10.1117 46.083C9.61707 45.9821 9.13974 45.8199 8.66871 45.6434C8.58837 45.6198 8.4844 45.571 8.42139 45.5017C8.57735 45.4481 8.72385 45.3772 8.8546 45.289C9.02947 45.3552 9.20905 45.4497 9.33508 45.4702C10.1086 45.7159 10.8962 45.8892 11.6981 45.9821C12.3991 46.0357 13.1316 45.8545 13.7366 45.5174C13.9713 45.4197 14.206 44.87 14.4612 45.0637V45.0622Z" fill="#2B1D1A"/>
<path d="M15.1711 41.2734C15.0687 41.2813 14.9395 41.2545 14.8922 41.1647C14.8843 41.1505 14.8796 41.1348 14.8765 41.1175C14.8938 41.0292 14.9505 40.9662 15.0324 40.9237C15.086 41.0371 15.1332 41.1521 15.1711 41.2718V41.2734Z" fill="#2B1D1A"/>
<path d="M14.8939 41.1647L14.7348 41.2183C14.5095 40.6811 14.1062 40.2022 13.6919 39.8036C12.9294 39.164 11.9716 38.5087 12.5372 37.3949C12.6459 37.0909 12.7971 36.8499 12.8365 36.5411C12.9294 35.8448 12.408 35.4163 11.7479 35.6841C10.4751 36.1378 10.2262 37.5367 10.2529 38.7324C10.2466 38.7765 10.2246 38.8285 10.1931 38.8726C10.108 38.7592 9.99931 38.6583 9.87013 38.5764C9.84335 38.1511 9.94575 37.469 9.98513 37.2705C10.6515 34.4805 14.2984 34.5467 12.9074 37.5131C12.6049 38.0896 12.8066 38.5386 13.2681 38.9435C13.9392 39.4759 14.6576 40.1344 15.0325 40.9253C14.9522 40.9678 14.8939 41.0292 14.8765 41.119C14.8797 41.1363 14.8844 41.1521 14.8923 41.1663L14.8939 41.1647Z" fill="#2B1D1A"/>
<path d="M13.7555 45.6749C13.8894 45.6733 13.924 45.7442 13.965 45.8199C13.8311 45.9112 13.7019 45.9837 13.62 46.0168C13.5554 45.8734 13.5649 45.7175 13.7555 45.6749Z" fill="#2B1D1A"/>
<path d="M12.6322 43.0189C12.8181 43.1339 12.6794 43.4064 12.4999 43.3765C12.4746 43.3718 12.4494 43.3623 12.4242 43.3466C11.5956 42.8598 10.9529 42.1178 10.4913 41.2829C10.4724 41.2419 10.4535 41.201 10.433 41.1569C10.4062 41.0718 10.3668 40.9883 10.318 40.9111C10.244 40.752 10.1715 40.5834 10.1211 40.418C10.2392 40.2747 10.3227 40.1203 10.3731 39.9596C10.4204 40.0273 10.4566 40.1108 10.4614 40.1786C10.7071 41.0293 11.2018 41.798 11.8288 42.4187C12.0714 42.6503 12.3518 42.8362 12.6322 43.0189Z" fill="#2B1D1A"/>
<path d="M10.433 41.1569C10.5181 41.42 10.4945 41.7114 10.3212 41.9461C10.1857 42.1241 10.0234 42.2754 9.84227 42.4014C9.74459 42.2643 9.61227 42.2076 9.48939 42.2959L9.34131 42.2423C9.99192 41.9225 10.5086 41.3176 9.62014 40.7993C9.7509 40.7347 9.87062 40.6543 9.97932 40.5598C10.0313 40.6024 10.0801 40.6496 10.1258 40.689C10.1999 40.7536 10.2645 40.8308 10.3164 40.9127C10.3558 40.9978 10.3952 41.0797 10.4314 41.1585L10.433 41.1569Z" fill="#2B1D1A"/>
<path d="M10.4334 41.1568C10.3971 41.0781 10.3577 40.9962 10.3184 40.9111C10.3688 40.9883 10.4066 41.0702 10.4334 41.1568Z" fill="#2B1D1A"/>
<path d="M10.1939 38.8727C10.4302 39.183 10.4932 39.5831 10.3735 39.9596C10.2805 39.832 10.1388 39.7627 10.06 39.9754C10.049 40.114 10.0742 40.2652 10.1199 40.4181C10.1199 40.4181 10.1183 40.4196 10.1167 40.4212C10.0742 40.47 10.0269 40.5157 9.97966 40.5583C9.87569 40.4748 9.75754 40.4055 9.62836 40.437C9.4724 40.4889 9.46137 40.7331 9.61576 40.7946C9.61733 40.7946 9.61891 40.7961 9.62048 40.7977C9.2109 41.0025 8.71624 41.0592 8.26254 40.9836C8.12864 40.9615 7.99946 40.9285 7.87659 40.8828C7.56624 40.7442 7.21652 40.5866 6.93296 40.3661C6.95816 40.3456 6.97707 40.3204 6.99282 40.2936C7.03536 40.1156 6.78173 40.0337 6.6431 40.0762C6.63995 40.0762 6.6368 40.0762 6.63364 40.0778C6.52022 39.9344 6.43515 39.769 6.39577 39.5768C6.3044 38.6174 7.34255 37.992 8.21056 38.0834C8.7572 38.096 9.25816 38.3386 9.76069 38.5135C9.7985 38.534 9.8363 38.5544 9.87096 38.5781C9.88199 38.7482 9.9135 38.8758 9.97808 38.9183C10.0569 38.9924 10.1388 38.9483 10.1923 38.8742L10.1939 38.8727ZM9.76226 40.2385C10.0127 39.9659 10.1608 39.5311 9.94658 39.1972C9.7985 38.9451 9.54329 38.838 9.28179 38.7466C9.01713 38.6411 8.73672 38.5466 8.45158 38.4993C8.16487 38.452 7.87343 38.4505 7.58672 38.5355C7.18344 38.6442 6.83844 38.9719 6.77543 39.3941C6.75022 40.0384 7.90022 40.5457 8.44056 40.6213C8.8974 40.6481 9.41569 40.5598 9.76069 40.2385H9.76226Z" fill="#2B1D1A"/>
<path d="M9.84361 42.4014C10.0516 42.6912 10.1146 43.345 9.65142 43.7751C9.57738 43.8507 9.49861 43.92 9.41197 43.983C9.36786 43.9169 9.29539 43.8822 9.18197 43.9058C9.08272 43.9436 9.03389 44.0555 9.07012 44.1547C9.07012 44.1658 9.0717 44.1752 9.0717 44.1862C8.4069 44.506 7.5452 44.5438 6.81266 44.4225C6.64253 44.3942 6.48027 44.3564 6.32746 44.3123C6.30383 44.3044 6.28178 44.2965 6.25972 44.2886C6.28178 44.2414 6.29595 44.1894 6.28493 44.1311C6.2739 44.0649 6.18253 44.0413 6.12897 44.0397C6.0502 44.0429 5.98089 44.0744 5.92575 44.1232C5.19637 43.6491 5.17274 42.7243 6.04548 42.1982C6.14787 42.2738 6.2613 42.3415 6.3826 42.403C6.25972 42.5699 6.02815 42.633 5.91787 42.8204C5.60596 43.1938 5.82335 43.6522 6.22191 43.8444C6.96232 44.1925 7.85554 44.139 8.63218 43.9468C9.16622 43.8082 9.9145 43.1985 9.50649 42.6141C9.50176 42.6109 9.49704 42.6078 9.49231 42.603C9.61519 42.5463 9.73176 42.4786 9.84361 42.4014Z" fill="#2B1D1A"/>
<path d="M10.0601 39.9754C10.1389 39.7627 10.2807 39.832 10.3736 39.9596C10.3232 40.1187 10.2397 40.2747 10.1216 40.418C10.0759 40.2652 10.0491 40.114 10.0617 39.9754H10.0601Z" fill="#2B1D1A"/>
<path d="M9.41195 43.983C9.51907 44.1405 9.45921 44.4777 9.39462 44.6336C9.27962 44.9156 9.09058 45.1314 8.85428 45.289C8.66209 45.2165 8.4762 45.1771 8.37065 45.3047C8.34545 45.3819 8.37065 45.4481 8.42106 45.5016C7.99887 45.6497 7.50894 45.6718 7.06155 45.5977C6.82997 45.5599 6.611 45.4937 6.41723 45.4087C6.10847 45.2685 5.78868 45.0322 5.73669 44.6746C5.71148 44.495 5.77765 44.2508 5.92415 44.1248C6.0234 44.1878 6.13367 44.2445 6.25813 44.2886C6.21874 44.3705 6.15258 44.4461 6.1258 44.5328C6.11319 45.0196 6.87881 45.1834 7.26162 45.2417C7.96106 45.3016 9.11736 45.0731 9.0701 44.1862C9.18983 44.1279 9.30483 44.0602 9.41037 43.983H9.41195Z" fill="#2B1D1A"/>
<path d="M9.49109 42.2958C9.61396 42.2076 9.74629 42.2643 9.84396 42.4014C9.73369 42.4786 9.61554 42.5447 9.49266 42.603C9.41389 42.54 9.38239 42.4313 9.44067 42.3399C9.458 42.3226 9.47376 42.3069 9.49109 42.2958Z" fill="#2B1D1A"/>
<path d="M9.50688 42.6124C9.91489 43.1985 9.1666 43.8081 8.63257 43.9452C7.85592 44.1374 6.96271 44.1909 6.2223 43.8428C5.82216 43.649 5.60634 43.1922 5.91826 42.8188C6.02853 42.6313 6.26011 42.5683 6.38298 42.4013C6.79887 42.6109 7.2951 42.7337 7.67634 42.7889C7.72832 42.8015 7.78188 42.8109 7.83545 42.8204C8.38681 42.9117 8.98387 42.8409 9.4927 42.6014C9.49743 42.6061 9.50215 42.6093 9.50688 42.6124Z" fill="#FFEFE3"/>
<path d="M9.18205 43.9042C9.29548 43.8822 9.36794 43.9168 9.41205 43.9814C9.3065 44.0586 9.1915 44.1263 9.07178 44.1846C9.07178 44.1736 9.07178 44.1641 9.0702 44.1531C9.03555 44.0539 9.08438 43.942 9.18205 43.9042Z" fill="#2B1D1A"/>
<path d="M10.1934 38.8726C10.1399 38.9467 10.058 38.9908 9.97919 38.9167C9.9146 38.8742 9.8831 38.7466 9.87207 38.5765C10.0012 38.66 10.1099 38.7608 10.195 38.8726H10.1934Z" fill="#2B1D1A"/>
<path d="M9.34318 42.2407L9.49126 42.2942C9.47551 42.3053 9.45818 42.321 9.44085 42.3383C9.38256 42.4297 9.41407 42.5384 9.49284 42.6014C8.984 42.8409 8.38695 42.9133 7.83558 42.8204C7.78202 42.8109 7.72846 42.8015 7.67647 42.7889C7.29367 42.7338 6.79901 42.6109 6.38312 42.4014C6.391 42.3903 6.39887 42.3777 6.40675 42.3651C6.53435 42.1399 6.19251 42.0816 6.05388 42.1918C6.05073 42.1918 6.04757 42.195 6.046 42.1966C5.63799 41.8957 5.40641 41.4703 5.64271 40.8906C5.83806 40.4968 6.1862 40.1455 6.63518 40.073C6.72024 40.1817 6.82264 40.2778 6.93449 40.3629C6.87778 40.4117 6.80059 40.4401 6.72812 40.4495C6.37367 40.4968 6.11531 40.7929 5.97353 41.1033C5.75614 41.8642 6.75805 42.1918 7.33305 42.321C7.86551 42.447 8.43106 42.5447 8.96825 42.3872C9.0927 42.3494 9.2203 42.299 9.34475 42.2391L9.34318 42.2407Z" fill="#2B1D1A"/>
<path d="M9.62912 40.4369C9.75829 40.4054 9.87644 40.4731 9.98042 40.5582C9.87172 40.6527 9.75199 40.733 9.62124 40.7976C9.61967 40.7976 9.61809 40.7961 9.61651 40.7945C9.46213 40.733 9.47473 40.4889 9.62912 40.4369Z" fill="#2B1D1A"/>
<path d="M9.94684 39.1971C10.1627 39.5311 10.013 39.9675 9.76253 40.2384C9.41753 40.5582 8.89767 40.648 8.44239 40.6212C7.90205 40.5456 6.75206 40.0384 6.77726 39.394C6.84028 38.9718 7.18528 38.6442 7.58856 38.5355C7.8737 38.452 8.16513 38.452 8.45342 38.4992C8.73856 38.5465 9.01897 38.641 9.28362 38.7466C9.54513 38.8379 9.80033 38.9451 9.94842 39.1971H9.94684Z" fill="#FFEFE3"/>
<path d="M9.62137 40.7976C10.5099 41.3175 9.99315 41.9208 9.34253 42.2406C9.21966 42.3005 9.09048 42.3525 8.96603 42.3887C8.42884 42.5478 7.86487 42.4486 7.33083 42.3226C6.75426 42.1934 5.75392 41.8673 5.97131 41.1048C6.11309 40.7945 6.37145 40.4983 6.7259 40.4511C6.79837 40.4416 6.87556 40.4132 6.93227 40.3644C7.21583 40.5834 7.56555 40.7425 7.8759 40.8811C7.99877 40.9252 8.12952 40.9599 8.26185 40.9819C8.71555 41.0576 9.21021 41.0008 9.61979 40.7961L9.62137 40.7976Z" fill="#FFEFE3"/>
<path d="M9.0719 44.1863C9.11916 45.0732 7.96286 45.3 7.26341 45.2418C6.88061 45.1835 6.11499 45.0212 6.1276 44.5329C6.15595 44.4462 6.22054 44.3722 6.25992 44.2887C6.28198 44.2966 6.30561 44.3044 6.32766 44.3123C6.48047 44.3564 6.64273 44.3942 6.81287 44.4226C7.54382 44.5455 8.40711 44.5061 9.0719 44.1863Z" fill="#FFEFE3"/>
<path d="M8.37073 45.3047C8.47785 45.1771 8.66374 45.2165 8.85436 45.289C8.7236 45.3788 8.57552 45.4497 8.42114 45.5016C8.37073 45.4481 8.34552 45.3819 8.37073 45.3047Z" fill="#2B1D1A"/>
<path d="M6.64471 40.0746C6.78334 40.0336 7.03696 40.114 6.99443 40.292C6.97868 40.3204 6.9582 40.344 6.93457 40.3645C6.82272 40.2794 6.72032 40.1833 6.63525 40.0746C6.6384 40.0746 6.64156 40.0746 6.64471 40.073V40.0746Z" fill="#2B1D1A"/>
<path d="M6.28545 44.1311C6.2949 44.1894 6.2823 44.2414 6.26024 44.2887C6.13736 44.2446 6.02552 44.1879 5.92627 44.1248C5.98298 44.076 6.05072 44.0445 6.12949 44.0414C6.18305 44.0429 6.27442 44.0666 6.28545 44.1327V44.1311Z" fill="#2B1D1A"/>
<path d="M6.05426 42.1935C6.19132 42.0816 6.53474 42.1399 6.40714 42.3668C6.39926 42.3794 6.39139 42.392 6.38351 42.403C6.26378 42.3415 6.14878 42.2738 6.04639 42.1982C6.04796 42.1966 6.05111 42.195 6.05426 42.1935Z" fill="#2B1D1A"/>
<path d="M39.5756 43.8616C39.4323 44.0963 39.2621 44.3137 39.0321 44.4713C38.5879 44.758 38.1169 45.0384 37.5939 45.1534C36.9243 45.3109 36.2312 45.1896 35.5617 45.0809C35.045 44.9707 34.5267 44.8084 34.0824 44.517C33.8808 44.402 33.7437 44.1846 33.5547 44.0585C34.3597 44.3578 35.9303 44.55 36.154 44.5705C37.326 44.6619 38.5658 44.4981 39.5756 43.8632V43.8616Z" fill="#FFEFE3"/>
<path d="M45.4873 37.6738C45.7252 37.9037 45.2935 38.2078 45.1754 38.4031C44.9659 38.6536 44.7154 38.8726 44.4397 39.049C44.4129 39.027 44.3814 39.0065 44.3405 38.9923C44.2554 38.9529 44.1577 38.9892 44.142 39.0853C44.1294 39.1325 44.1294 39.1782 44.1388 39.2223C43.8159 39.3846 43.4677 39.4948 43.1117 39.5405C43.1133 39.5248 43.1149 39.509 43.118 39.4917C43.1306 39.3436 43.0156 39.2727 42.9069 39.2806L42.8975 39.1735C43.6725 39.1246 44.4035 38.7229 44.9029 38.1274C45.0872 37.9809 45.1943 37.5052 45.4889 37.6722L45.4873 37.6738Z" fill="#2B1D1A"/>
<path d="M45.1458 39.5736C45.3789 39.6728 45.2356 40.0273 45.0009 39.9327C44.785 39.8398 44.5708 39.7374 44.3944 39.5799C44.2935 39.4822 44.1675 39.3625 44.1392 39.2207C44.2431 39.1687 44.344 39.1104 44.4416 39.0474C44.4999 39.0978 44.5314 39.1624 44.585 39.2238C44.7362 39.3892 44.9442 39.4853 45.1474 39.5736H45.1458Z" fill="#2B1D1A"/>
<path d="M44.3408 38.9923C44.3818 39.0065 44.4133 39.027 44.4401 39.049C44.3424 39.112 44.2416 39.1703 44.1376 39.2223C44.1281 39.1798 44.1281 39.1341 44.1407 39.0853C44.1565 38.9876 44.2542 38.9514 44.3392 38.9923H44.3408Z" fill="#2B1D1A"/>
<path d="M42.905 39.2806C43.0137 39.2727 43.1287 39.3436 43.1161 39.4917C43.1145 39.5074 43.1129 39.5232 43.1098 39.5405C43.0704 39.5452 43.031 39.5499 42.9916 39.5531C42.9743 39.4854 42.9223 39.4271 42.8514 39.4097C42.8121 39.3987 42.7711 39.4019 42.7349 39.4176C42.7585 39.3325 42.8294 39.2884 42.9034 39.2821L42.905 39.2806Z" fill="#2B1D1A"/>
<path d="M42.9937 39.5531C43.0331 39.55 43.0725 39.5452 43.1119 39.5405C43.0772 39.8241 43.0142 40.0935 42.9811 40.3676C42.978 40.3865 42.9733 40.4069 42.9717 40.4274C42.9748 40.4132 42.9764 40.3959 42.9764 40.3786C42.9512 40.136 43.0678 39.8713 42.9969 39.6398C43.0032 39.6114 43.0032 39.5815 42.9969 39.5531H42.9937Z" fill="#2B1D1A"/>
<path d="M42.993 39.6398C43.0639 39.8729 42.9473 40.136 42.9725 40.3786C42.9725 40.3959 42.9725 40.4133 42.9678 40.4274C42.9252 40.6291 42.5865 40.6196 42.585 40.3865C42.585 40.3565 42.585 40.3061 42.585 40.2447C42.6149 40.1297 42.6117 40.0037 42.6149 39.8776C42.6228 39.8209 42.6338 39.7642 42.648 39.7138C42.6732 39.7485 42.711 39.7737 42.7551 39.7847C42.8575 39.8115 42.9646 39.7469 42.9898 39.6445C42.9898 39.6429 42.9898 39.6398 42.9898 39.6382L42.993 39.6398Z" fill="#2B1D1A"/>
<path d="M42.9944 39.5531C43.0008 39.5815 43.0024 39.6098 42.9944 39.6398C42.988 39.6177 42.98 39.5957 42.9688 39.5736C42.9624 39.5673 42.9576 39.5626 42.9512 39.5563C42.9656 39.5563 42.98 39.5547 42.9928 39.5531H42.9944Z" fill="#2B1D1A"/>
<path d="M42.9937 39.6397C42.9937 39.6397 42.9937 39.6444 42.9937 39.646C42.9685 39.7484 42.8614 39.8114 42.759 39.7862C42.7149 39.7752 42.6786 39.75 42.6519 39.7153C42.6676 39.657 42.6881 39.6051 42.7117 39.5673C42.7921 39.5673 42.8724 39.5641 42.9527 39.5578C42.959 39.5641 42.9638 39.5688 42.9701 39.5751C42.9811 39.5972 42.989 39.6177 42.9953 39.6413L42.9937 39.6397Z" fill="#2B1D1A"/>
<path d="M42.9936 39.5531C42.9794 39.5531 42.9653 39.5563 42.9527 39.5563C42.8424 39.4539 42.7652 39.4775 42.7116 39.5657C42.699 39.5657 42.6864 39.5657 42.6738 39.5657C42.688 39.5326 42.7069 39.5027 42.729 39.4744C42.729 39.4539 42.7321 39.435 42.7368 39.4176C42.7731 39.4035 42.8125 39.4003 42.8534 39.4098C42.9243 39.4271 42.9763 39.4854 42.9936 39.5531Z" fill="#2B1D1A"/>
<path d="M42.9687 40.4274C42.9514 40.5503 42.9435 40.6889 42.8206 40.7472C42.7434 40.7834 42.641 40.7582 42.5906 40.6889C42.5024 40.5597 42.5749 40.3912 42.5843 40.2478V40.2447C42.5827 40.3061 42.5827 40.3565 42.5843 40.3864C42.5843 40.6196 42.9246 40.6306 42.9671 40.4274H42.9687Z" fill="#2B1D1A"/>
<path d="M42.8959 39.1734L42.9053 39.2805C42.8313 39.2869 42.7604 39.331 42.7368 39.416C42.6785 39.4381 42.6328 39.4853 42.617 39.5484C42.617 39.5531 42.6155 39.5562 42.6139 39.561C42.3303 39.5499 42.0499 39.4964 41.779 39.3956C41.6923 39.364 41.6041 39.3278 41.519 39.2916C41.5348 39.2049 41.5175 39.1246 41.4466 39.0584C41.3457 39.0379 41.2685 39.0758 41.204 39.1403C40.9204 38.9875 40.6573 38.7985 40.4415 38.5559C40.284 38.3574 39.9027 37.984 40.1784 37.7556C40.4557 37.7304 40.5108 38.0896 40.6794 38.2424C41.1772 38.7969 41.9129 39.1277 42.647 39.1766C42.7289 39.1797 42.8124 39.1782 42.8943 39.1734H42.8959Z" fill="#2B1D1A"/>
<path d="M42.71 39.5657C42.7635 39.479 42.8423 39.4538 42.951 39.5562C42.8706 39.5625 42.7903 39.5657 42.71 39.5657Z" fill="#2B1D1A"/>
<path d="M42.737 39.4176C42.7323 39.4349 42.7291 39.4539 42.7291 39.4743C42.7055 39.5027 42.6882 39.5326 42.674 39.5657C42.6551 39.5657 42.6346 39.5657 42.6157 39.5641C42.6157 39.5594 42.6157 39.5562 42.6189 39.5515C42.6346 39.4885 42.6803 39.4397 42.7386 39.4192L42.737 39.4176Z" fill="#2B1D1A"/>
<path d="M42.6726 39.5657C42.6852 39.5657 42.6978 39.5657 42.7104 39.5657C42.6868 39.6051 42.6663 39.6555 42.6505 39.7138C42.6442 39.7059 42.6395 39.6981 42.6348 39.6886C42.6426 39.6461 42.6552 39.6051 42.6726 39.5657Z" fill="#2B1D1A"/>
<path d="M42.6143 39.5626C42.6332 39.5626 42.6537 39.5641 42.6726 39.5641C42.6553 39.6035 42.6427 39.6445 42.6348 39.687C42.6143 39.6492 42.6065 39.6051 42.6143 39.561V39.5626Z" fill="#2B1D1A"/>
<path d="M42.6348 39.6886C42.6396 39.6981 42.646 39.7059 42.6508 39.7138C42.6364 39.7642 42.6252 39.8209 42.6172 39.8777C42.6188 39.8131 42.6236 39.7501 42.6348 39.6886Z" fill="#2B1D1A"/>
<path d="M42.6178 39.8777C42.6146 40.0037 42.6178 40.1297 42.5874 40.2447C42.5906 40.1407 42.5986 40.0053 42.6178 39.8777Z" fill="#2B1D1A"/>
<path d="M41.4471 39.0585C41.5164 39.1247 41.5337 39.205 41.5195 39.2917C41.4124 39.246 41.3069 39.1956 41.2061 39.1404C41.2706 39.0758 41.3463 39.0396 41.4487 39.0585H41.4471Z" fill="#2B1D1A"/>
<path d="M41.2037 39.1404C41.3061 39.1955 41.4116 39.2459 41.5171 39.2916C41.4746 39.539 41.1627 39.8335 41.0398 39.9864C40.9185 40.114 40.709 40.3518 40.5436 40.1581C40.3782 39.917 40.7641 39.78 40.8681 39.5972C40.9973 39.4933 41.0761 39.2633 41.2037 39.1388V39.1404Z" fill="#2B1D1A"/>
<path d="M40.5062 43.3371C40.5472 43.9073 40.5425 44.4823 40.5236 45.0542C40.5377 47.1572 38.8443 48.4963 36.9176 48.4963C36.6561 48.4963 36.3899 48.4711 36.1237 48.4207C34.3561 48.1119 33.2518 46.4153 33.0549 44.7139C32.9887 44.4319 32.9572 44.1405 32.9903 43.8601C33.0644 43.6143 33.2833 43.6096 33.4409 43.701C33.5937 43.7325 33.7433 43.8207 33.8914 43.8616C34.4191 44.0412 34.9705 44.1231 35.5187 44.2019C36.6561 44.3973 37.8817 44.3689 38.9388 43.8679C39.3011 43.6899 39.6319 43.4599 39.9454 43.2079C39.9785 43.1827 40.0163 43.1669 40.0573 43.1622C40.2353 43.0645 40.4543 43.0819 40.5062 43.3386V43.3371ZM39.0302 44.6635C39.2602 44.5075 39.4303 44.2886 39.5736 44.0538C38.5639 44.6887 37.3241 44.8525 36.152 44.7612C35.9283 44.7407 34.3577 44.5485 33.5527 44.2492C33.7433 44.3752 33.8804 44.5926 34.0804 44.7076C34.5247 44.999 35.043 45.1613 35.5597 45.2716C36.2292 45.3803 36.9224 45.5016 37.5919 45.344C38.1149 45.2306 38.5843 44.9486 39.0302 44.6619V44.6635ZM38.641 47.5747C38.641 47.5747 38.6347 47.5621 38.6332 47.5558C38.5922 47.4361 38.5292 47.3274 38.4583 47.2234C38.1669 46.7886 37.6628 46.5901 37.1492 46.5901C36.7081 46.5901 36.2576 46.7366 35.933 47.0044C35.6778 47.1604 35.6148 47.5196 35.4636 47.7118C35.6652 47.811 35.8811 47.8866 36.1126 47.937C36.9554 48.1119 37.8928 48.0095 38.6426 47.5731L38.641 47.5747Z" fill="#2B1D1A"/>
<path d="M38.6336 47.3621C38.6336 47.3621 38.6383 47.3747 38.6414 47.381C37.8916 47.8158 36.9542 47.9182 36.1114 47.7449C35.8799 47.6945 35.664 47.6188 35.4624 47.5196C35.6136 47.3274 35.6766 46.9682 35.9319 46.8123C36.2564 46.5445 36.7069 46.398 37.148 46.398C37.6616 46.398 38.1673 46.5965 38.4571 47.0313C38.528 47.1352 38.591 47.2439 38.632 47.3636L38.6336 47.3621Z" fill="#F25235"/>
<path d="M34.6974 31.7111C34.7904 31.7505 34.8471 31.8702 34.8014 31.9647C34.6549 32.2987 34.2784 32.8485 33.8751 32.9147C33.9791 33.2549 34.0515 33.6047 34.1161 33.9355C34.2815 35.1658 34.135 36.4245 33.8499 37.6265C33.6735 38.4914 33.2576 39.1703 32.6038 39.5547C32.7913 39.6571 32.8779 39.9879 33.026 40.1329C33.1804 40.3314 32.87 40.5708 32.7188 40.3707C32.6148 40.1911 32.3234 39.8997 32.3722 39.676C32.1202 39.7879 31.8398 39.8619 31.5294 39.8918C31.5373 39.917 31.5436 39.9454 31.5483 39.9801C31.542 40.2274 31.5105 40.4731 31.5105 40.722C31.5089 40.8481 31.4113 40.9111 31.3152 40.9111C31.2191 40.9111 31.123 40.8481 31.123 40.722C31.1293 40.492 31.1419 40.2636 31.1608 40.0352C31.1639 39.9785 31.1781 39.9296 31.197 39.8871C30.9749 39.8524 30.7591 39.7816 30.5496 39.6886C30.5496 39.7012 30.5511 39.7154 30.5496 39.728C30.5496 39.8351 30.4881 39.9312 30.4456 40.0273C30.318 40.2022 30.1652 40.7315 29.8879 40.5897C29.6185 40.3912 30.0218 40.0872 30.0896 39.8745C30.1463 39.7658 30.1825 39.6303 30.2833 39.5579C30.1037 39.4586 29.932 39.3468 29.7729 39.2286C29.1711 38.7765 29.0325 37.9967 28.9837 37.2894C28.8561 36.9759 28.927 36.6025 28.886 36.2686C28.8451 35.4352 28.8671 34.594 29.1081 33.7906C29.1727 33.5086 29.2814 33.2171 29.4264 32.9351C29.1617 32.8737 28.9175 32.7367 28.708 32.5649C28.5142 32.3917 28.0401 31.9175 28.3851 31.7017C28.6229 31.7017 28.6686 31.9962 28.8151 32.1317C29.0215 32.3538 29.294 32.5303 29.5981 32.5744C29.6091 32.576 29.6201 32.5791 29.6296 32.5823C29.8517 32.2341 30.1274 31.9128 30.4393 31.6575C30.2266 31.4591 30.0691 31.2086 29.9714 30.9345C29.8927 30.7045 29.6548 30.1295 30.0329 30.0712C30.192 30.1263 30.2124 30.3169 30.2282 30.4603C30.3133 30.8242 30.4676 31.1834 30.7591 31.4275C30.9828 31.2873 31.2207 31.1834 31.468 31.1251C31.3845 30.9581 31.4396 30.6903 31.4144 30.5154C31.4081 30.2476 31.405 29.9782 31.4097 29.7104C31.4097 29.6049 31.4963 29.5167 31.6035 29.5167C31.7106 29.5167 31.7988 29.6049 31.7972 29.7104C31.7941 29.9767 31.7972 30.2445 31.802 30.5107C31.7831 30.6682 31.8492 30.9061 31.8051 31.0762C32.1296 31.0589 32.4652 31.1251 32.8007 31.2984C32.8181 31.311 32.837 31.322 32.8543 31.3346C32.9299 31.1613 33.1189 31.0069 33.1741 30.8305C33.2654 30.643 33.3316 30.4461 33.3883 30.2445C33.4183 30.1437 33.5238 30.0806 33.6262 30.109C33.727 30.1358 33.7916 30.246 33.7617 30.3469C33.7034 30.569 33.4356 31.3488 33.1284 31.5662C33.412 31.8482 33.6104 32.2042 33.757 32.5854C33.7774 32.5681 33.7995 32.5539 33.82 32.546C34.0011 32.4389 34.1618 32.294 34.28 32.1191C34.3981 31.9726 34.4406 31.6292 34.6943 31.719L34.6974 31.7111ZM33.5632 37.1618C33.8672 35.5927 33.9728 33.8914 33.2576 32.4153C33.0559 31.9553 32.7708 31.6812 32.4478 31.5504C32.4652 31.5851 32.4762 31.6213 32.4809 31.6528C32.6637 32.2751 32.6495 32.9399 32.6904 33.5842C32.7188 34.3671 32.6747 35.1863 32.4904 35.944C32.4494 36.1835 32.1879 36.2276 31.9863 36.2607C31.6807 36.3331 31.3703 36.3962 31.0726 36.4986C31.98 36.9491 32.4983 36.8798 32.4211 38.0881C32.4226 38.2362 32.3817 38.849 32.2667 39.2995C33.048 38.9261 33.3757 38.1353 33.5616 37.1633L33.5632 37.1618Z" fill="#2B1D1A"/>
<path d="M33.2576 32.4153C33.9728 33.8914 33.8673 35.5927 33.5633 37.1617C33.3774 38.1337 33.0497 38.923 32.2683 39.2979C32.3833 38.8474 32.4243 38.2346 32.4227 38.0865C32.4999 36.8798 31.9816 36.9475 31.0742 36.497C31.372 36.3946 31.6823 36.3331 31.9879 36.2591C32.1896 36.226 32.4495 36.1819 32.492 35.9424C32.6763 35.1831 32.7189 34.3655 32.6921 33.5826C32.6511 32.9383 32.6653 32.2751 32.4826 31.6512C32.4794 31.6197 32.4668 31.5835 32.4495 31.5488C32.7724 31.6796 33.0591 31.9553 33.2592 32.4137L33.2576 32.4153Z" fill="#FFEFE3"/>
<path d="M37.4941 41.1269C37.8549 41.4041 37.0231 42.0831 36.4103 42.0831C36.3063 42.0831 36.2086 42.0642 36.1236 42.0185C35.3942 41.8358 35.1311 40.9614 35.4981 40.3423C35.5454 40.2053 35.7266 40.0478 35.8699 40.1439C36.0196 40.4101 35.6966 40.681 35.7124 40.963C35.6856 41.486 36.3473 41.872 36.7899 41.5947C36.9396 41.5191 37.0829 41.4199 37.1775 41.2781C37.2326 41.1552 37.357 41.0434 37.4941 41.1253V41.1269Z" fill="#2B1D1A"/>
<path d="M30.3643 28.1887C30.6872 28.1241 32.302 27.6909 32.2358 28.2533C32.2059 28.3667 32.0814 28.4203 31.9743 28.3824C31.4245 28.3289 30.8574 28.4549 30.3312 28.6046C29.8996 28.7637 29.4758 28.9637 29.1229 29.2631C28.9764 29.3781 28.8331 29.6333 28.6172 29.5466C28.2896 29.0126 29.961 28.3005 30.3659 28.1871L30.3643 28.1887Z" fill="#2B1D1A"/>
<path d="M44.1609 28.447C44.4697 28.562 46.0718 29.0378 45.7205 29.482C45.6354 29.5624 45.5015 29.5435 45.4291 29.4552C44.988 29.1213 44.4398 28.9322 43.912 28.7842C43.4615 28.6944 42.9952 28.6424 42.5368 28.7117C42.3524 28.7337 42.0957 28.8755 41.957 28.6881C41.957 28.0611 43.7545 28.3305 44.1594 28.4455L44.1609 28.447Z" fill="#2B1D1A"/>
<path d="M28.9138 42.0862C30.579 41.7302 29.6795 43.3386 28.6303 43.3623C27.3637 43.3465 28.1325 42.2249 28.9138 42.0862Z" fill="#F25235"/>
<path d="M29.4064 41.6578C30.8904 41.6578 30.1878 43.786 28.5116 43.7498C26.8371 43.6096 27.6673 41.8011 28.8992 41.7255C29.0898 41.6798 29.2584 41.6578 29.4064 41.6578ZM28.6298 43.3623C29.679 43.3371 30.5785 41.7302 28.9134 42.0863C28.132 42.2249 27.3632 43.3465 28.6298 43.3623Z" fill="#2B1D1A"/>
<path d="M45.8013 42.1319C47.312 42.9164 45.5949 43.5844 44.7694 42.9369C43.8022 42.1178 45.1097 41.7428 45.8013 42.1319Z" fill="#F25235"/>
<path d="M46.4547 42.1162C47.6 43.0598 45.7033 44.2555 44.4336 43.1606C43.2316 41.987 45.0212 41.119 46.0199 41.8452C46.1964 41.9319 46.3397 42.0217 46.4547 42.1162ZM44.7707 42.9369C45.5946 43.5844 47.3117 42.9165 45.8025 42.1319C45.111 41.7413 43.8034 42.1178 44.7707 42.9369Z" fill="#2B1D1A"/>
<path d="M61.9685 59.9806C62.0598 60.1728 62.2631 60.3445 62.3733 60.5099C63.2224 61.6095 64.1739 62.6272 65.0199 63.7283C65.4484 64.3711 66.381 65.2422 65.6091 65.9716C65.5587 66.0252 65.4783 66.0803 65.4263 66.1433C65.1869 65.6896 64.8482 65.2548 64.593 64.8799C64.3661 64.5412 64.1645 64.193 63.9833 63.8291C63.9061 63.6952 63.862 63.5141 63.6982 63.4652C63.0838 63.4211 64.4165 65.1918 64.5363 65.425C64.8891 66.0063 65.5272 66.5954 65.3397 67.3343C64.9207 68.4449 64.3472 67.9124 64.0731 67.9549C63.955 67.1515 63.3311 66.2725 63.0429 65.5982C62.8475 65.3383 62.4505 64.0938 62.1213 64.2198C61.907 64.4939 62.3529 64.8988 62.4364 65.1808C62.7231 65.7353 63.0019 66.2945 63.2792 66.8554C64.2118 68.2133 63.5706 70.0454 62.1197 68.2306C61.4234 67.3721 61.0469 66.3323 60.6121 65.3336C60.6027 65.3147 60.5932 65.3005 60.5806 65.2879C60.5144 65.1666 60.4309 65.0957 60.3254 65.1036C60.2104 65.195 60.234 65.3257 60.275 65.4517C60.297 65.5226 60.3254 65.5919 60.3396 65.6534C60.5176 66.6348 60.7303 67.6493 60.6389 68.6371C60.5255 69.9493 59.3755 69.7319 58.9706 68.7095C58.5642 67.6036 58.6193 66.4505 58.5327 65.3005C58.4823 64.7413 58.4192 64.13 58.0002 63.7236C57.9325 63.6653 57.8537 63.6716 57.7954 63.711C57.7907 63.7094 57.7875 63.7078 57.7828 63.7063C57.5166 63.6779 57.5512 64.0623 57.4457 64.223C57.3197 64.5302 57.1369 64.8137 56.9038 65.0516C56.6344 65.4281 55.2103 66.0992 55.1709 65.321C55.2591 64.6546 55.4828 64.0166 55.5695 63.3502C55.6939 62.5232 55.7128 61.6441 56.0751 60.8785C56.146 60.7383 56.2673 60.6359 56.3555 60.5083C56.3745 60.4768 56.3855 60.4469 56.3886 60.4185C56.532 60.4973 56.6864 60.5603 56.8502 60.6028C56.94 60.6359 57.0424 60.5808 57.0723 60.4926C57.1338 60.3035 56.9179 60.2531 56.7856 60.2043C55.3489 59.6829 55.4182 57.9106 56.7368 57.2773C57.8821 56.6818 59.3629 56.581 60.5775 57.0237C61.6944 57.375 62.764 59.2339 61.3289 59.8656C61.0217 60.0089 60.6893 60.0956 60.3538 60.1428C60.0418 60.2484 59.2479 60.0342 59.1392 60.3791C59.2951 60.8234 61.3825 60.3413 61.6928 60.0704C61.7889 60.0137 61.874 59.9507 61.948 59.8829C61.948 59.9097 61.9527 59.9412 61.9622 59.9774L61.9685 59.9806ZM59.919 63.8402C59.919 63.8402 59.919 63.8402 59.9205 63.8386C59.9205 63.8386 59.9142 63.8386 59.9111 63.8402C59.9142 63.8402 59.9158 63.8402 59.919 63.8402C59.7063 63.9741 59.9599 64.2372 60.0103 64.4026C60.0828 64.6184 60.4183 64.505 60.3427 64.2907C60.2592 64.1111 60.1663 63.8024 59.919 63.8402ZM61.5053 63.1061C61.3667 63.2683 61.5384 63.4542 61.6046 63.6086C61.6644 63.7472 61.885 63.7299 61.9275 63.5865C61.9574 63.4069 61.7227 62.9974 61.5053 63.1061ZM62.9531 62.7957C63.0507 63.0005 63.3721 62.8398 63.2666 62.6398C63.0964 62.3341 62.7798 62.4728 62.9531 62.7957Z" fill="#FFEFE3"/>
<path d="M55.5713 57.9294C55.1223 58.7644 55.4563 59.7395 56.162 60.2704C56.3006 60.2074 56.4172 60.2925 56.3952 60.4232C56.5385 60.502 56.6929 60.565 56.8567 60.6075C56.9465 60.6406 57.0489 60.5855 57.0789 60.4972C57.1403 60.3082 56.9245 60.2578 56.7922 60.209C55.3554 59.6875 55.4248 57.9153 56.7433 57.282C57.8886 56.6865 59.3694 56.5857 60.584 57.0284C61.7009 57.3797 62.7706 59.2386 61.3354 59.8703C61.0282 60.0136 60.6958 60.1003 60.3603 60.1475C60.0484 60.2531 59.2544 60.0388 59.1457 60.3838C59.3017 60.8281 61.389 60.346 61.6993 60.0751C61.7954 60.0183 61.8805 59.9553 61.9545 59.8876C61.953 59.7915 62.0081 59.7553 62.079 59.7568C62.8147 58.8794 62.0758 57.397 61.1023 56.8929C59.4844 56.0233 56.6078 56.2643 55.5713 57.9294Z" fill="#2B1D1A"/>
<path d="M58.8369 59.3299C57.9721 59.4276 57.1797 58.8242 57.0505 57.9578C57.0458 57.9263 56.5495 54.7866 54.771 52.4598C52.7987 49.881 51.1225 48.2679 51.1052 48.2521C50.4577 47.6314 50.4341 46.6043 51.0548 45.9569C51.6739 45.3094 52.7026 45.2858 53.35 45.9064C53.4256 45.9789 55.2262 47.7118 57.3498 50.4875C59.6482 53.4948 60.2374 57.3166 60.261 57.4773C60.3918 58.3642 59.7805 59.1897 58.8936 59.322C58.8747 59.3252 58.8558 59.3267 58.8369 59.3299Z" fill="#2B1D1A"/>
</g>
<circle cx="30" cy="30" r="29" stroke="white" stroke-width="2"/>
</svg>
