<svg width="105" height="190" viewBox="0 0 105 190" fill="none" xmlns="http://www.w3.org/2000/svg">
<path style="mix-blend-mode:multiply" opacity="0.3" d="M94.3215 181.612C94.3215 186.237 76.2305 189.998 53.9117 189.998C31.5929 189.998 13.502 186.237 13.502 181.612C13.502 176.988 31.5929 173.227 53.9117 173.227C76.2305 173.227 94.3215 176.988 94.3215 181.612Z" fill="url(#paint0_radial_104_60)"/>
<path d="M8.53185 133.797C8.21377 136.149 6.09322 137.81 3.72085 137.505C1.37499 137.186 -0.268438 135.019 0.0363908 132.667L10.4403 91.8817C10.7584 89.5162 12.8922 87.8683 15.2381 88.1739C17.5972 88.4929 19.2406 90.6458 18.9358 93.0113L8.5186 133.797H8.53185Z" fill="#07B4E5"/>
<path d="M58.219 138.528C58.219 140.893 56.3105 142.834 53.9381 142.834C51.579 142.834 49.644 140.893 49.644 138.528L44.7004 96.7191C44.7004 94.327 46.6089 92.4133 48.9946 92.4133C51.3669 92.4133 53.2754 94.3403 53.2754 96.7191L58.2057 138.528H58.219Z" fill="#07B4E5"/>
<path d="M41.2281 87.2304C48.2392 87.2304 53.9116 81.5159 53.9116 74.5124C53.9116 67.5088 48.2259 61.7943 41.2281 61.7943C34.2303 61.7943 28.571 67.4822 28.571 74.5124C28.571 81.5425 34.2303 87.2304 41.2281 87.2304Z" fill="#07B4E5"/>
<path d="M25.6155 177.36C25.6155 180.669 22.9516 183.34 19.6382 183.34C16.3514 183.34 13.7007 180.669 13.7007 177.36V132.986C13.7007 129.704 16.3514 126.993 19.6382 126.993C22.9516 126.993 25.6155 129.69 25.6155 132.986V177.36Z" fill="#07B4E5"/>
<path d="M41.1617 177.36C41.1617 180.669 38.4978 183.34 35.1977 183.34C31.8976 183.34 29.2336 180.669 29.2336 177.36V132.986C29.2336 129.704 31.8976 126.993 35.1977 126.993C38.5111 126.993 41.1617 129.69 41.1617 132.986V177.36Z" fill="#07B4E5"/>
<path d="M42.2089 130.142C41.321 136.827 35.8075 136.641 29.1145 135.75L23.9855 135.059C17.2792 134.169 11.9116 132.893 12.7995 126.209L16.5768 97.7424C0.52685 85.9547 23.6409 86.3135 30.3471 87.2039L35.4762 87.8949C42.1692 88.7853 65.0314 94.8852 45.9994 101.676L42.2222 130.142H42.2089Z" fill="#07B4E5"/>
<path d="M58.378 136.774C57.9538 138.834 55.9791 140.163 53.9115 139.724C51.8573 139.299 50.5452 137.292 50.9825 135.232C55.6742 121.119 58.2057 113.916 60.6045 100.121C60.6708 98.1013 62.4203 96.8255 64.5673 97.2242C66.7409 97.6362 68.4108 99.603 68.318 101.65C65.8662 115.564 63.0829 122.66 58.3912 136.774H58.378Z" fill="#EB5DE5"/>
<path d="M103.983 135.591C104.341 137.651 102.989 139.644 100.935 140.016C98.8805 140.389 96.8925 139.02 96.5214 136.96C93.0358 124.866 89.0597 112.879 83.6788 101.49C82.9896 99.4436 83.9439 97.3704 85.9054 96.9452C87.8537 96.5199 90.2128 98.0349 90.9152 100.095C96.1503 111.577 100.537 123.458 103.983 135.604V135.591Z" fill="#EB5DE5"/>
<path d="M75.9918 179.566C75.9918 181.918 74.1098 183.792 71.7639 183.792C69.4446 183.792 67.5493 181.905 67.5493 179.566C67.5493 167.007 67.5493 160.722 67.5493 148.163C67.5493 145.824 69.4446 143.924 71.7639 143.924C74.1098 143.924 75.9918 145.824 75.9918 148.163C75.9918 160.722 75.9918 167.007 75.9918 179.566Z" fill="#EB5DE5"/>
<path d="M87.6151 179.566C87.6151 181.918 85.7331 183.792 83.4005 183.792C81.0678 183.792 79.1726 181.905 79.1726 179.566C79.1726 167.007 79.1726 160.722 79.1726 148.163C79.1726 145.824 81.0678 143.924 83.4005 143.924C85.7331 143.924 87.6151 145.824 87.6151 148.163C87.6151 160.722 87.6151 167.007 87.6151 179.566Z" fill="#EB5DE5"/>
<path d="M94.9177 156.416C95.4743 164.629 90.4778 165.32 84.2487 165.32H70.929C64.6866 165.32 59.69 164.629 60.2599 156.416C62.5395 139.006 65.7336 121.464 65.7469 103.856C53.4742 97.1179 68.4108 95.3371 73.0363 95.2972C74.4544 95.284 75.1436 95.284 76.5087 95.2574C80.9486 95.1776 97.4226 97.0913 86.4488 103.749C91.1272 120.919 92.6381 138.834 94.931 156.416H94.9177Z" fill="#EB5DE5"/>
<path d="M67.841 94.5397C74.4147 94.5397 79.7558 89.1707 79.7558 82.5924C79.7558 76.0141 74.4147 70.6584 67.841 70.6584C61.2673 70.6584 55.9526 76.0008 55.9526 82.5924C55.9526 89.184 61.2673 94.5397 67.841 94.5397Z" fill="#EB5DE5"/>
<path d="M64.58 48.1725C66.5946 44.478 74.4671 46.179 71.2068 52.1859C67.9464 58.1927 58.51 59.3489 58.51 59.3489C58.51 59.3489 54.3616 50.7639 57.6352 44.7703C60.8956 38.7635 66.8994 43.9331 64.5933 48.1725H64.58Z" fill="#545456"/>
<path d="M43.3091 16.2776C41.2548 13.3805 45.4694 8.01157 48.8093 12.7293C52.1359 17.4471 49.5117 25.0487 49.5117 25.0487C49.5117 25.0487 41.4801 25.0221 38.1535 20.3044C34.8269 15.5866 40.9633 12.9553 43.3091 16.2776Z" fill="#545456"/>
<path d="M71.1011 3.10785C71.8035 0.795473 76.429 0.861921 75.2759 4.60956C74.1229 8.3572 68.954 10.0848 68.954 10.0848C68.954 10.0848 65.6539 5.73917 66.807 1.99153C67.96 -1.75611 71.9095 0.463236 71.1011 3.10785Z" fill="#545456"/>
<defs>
<radialGradient id="paint0_radial_104_60" cx="0" cy="0" r="1" gradientUnits="userSpaceOnUse" gradientTransform="translate(55.4755 192.57) scale(40.4356 8.34447)">
<stop/>
<stop offset="0.02" stop-color="#101010"/>
<stop offset="0.09" stop-color="#424242"/>
<stop offset="0.17" stop-color="#6F6F6F"/>
<stop offset="0.25" stop-color="#959595"/>
<stop offset="0.34" stop-color="#B6B6B6"/>
<stop offset="0.43" stop-color="#D1D1D1"/>
<stop offset="0.53" stop-color="#E5E5E5"/>
<stop offset="0.64" stop-color="#F3F3F3"/>
<stop offset="0.78" stop-color="#FCFCFC"/>
<stop offset="1" stop-color="white"/>
</radialGradient>
</defs>
</svg>
