<svg width="105" height="129" viewBox="0 0 105 129" fill="none" xmlns="http://www.w3.org/2000/svg">
<path style="mix-blend-mode:multiply" opacity="0.3" d="M94.3215 119.818C94.3215 124.443 76.2305 128.204 53.9117 128.204C31.5929 128.204 13.502 124.443 13.502 119.818C13.502 115.193 31.5929 111.432 53.9117 111.432C76.2305 111.432 94.3215 115.193 94.3215 119.818Z" fill="url(#paint0_radial_118_633)"/>
<path d="M8.53185 72.0025C8.21377 74.3547 6.09322 76.0159 3.72085 75.7103C1.37499 75.3913 -0.268438 73.2251 0.0363908 70.8729L10.4403 30.0874C10.7584 27.7219 12.8922 26.074 15.2381 26.3796C17.5972 26.6986 19.2406 28.8515 18.9358 31.217L8.5186 72.0025H8.53185Z" fill="#07B4E5"/>
<path d="M58.2192 76.7336C58.2192 79.0991 56.3107 81.0394 53.9383 81.0394C51.5792 81.0394 49.6442 79.0991 49.6442 76.7336L44.7007 34.9248C44.7007 32.5327 46.6092 30.619 48.9948 30.619C51.3672 30.619 53.2757 32.546 53.2757 34.9248L58.2059 76.7336H58.2192Z" fill="#07B4E5"/>
<path d="M41.2283 25.4361C48.2394 25.4361 53.9119 19.7216 53.9119 12.7181C53.9119 5.71448 48.2262 0 41.2283 0C34.2305 0 28.5713 5.68791 28.5713 12.7181C28.5713 19.7482 34.2305 25.4361 41.2283 25.4361Z" fill="#07B4E5"/>
<path d="M25.6155 115.565C25.6155 118.875 22.9516 121.546 19.6382 121.546C16.3514 121.546 13.7007 118.875 13.7007 115.565V71.1918C13.7007 67.9093 16.3514 65.1982 19.6382 65.1982C22.9516 65.1982 25.6155 67.896 25.6155 71.1918V115.565Z" fill="#07B4E5"/>
<path d="M41.162 115.565C41.162 118.875 38.498 121.546 35.1979 121.546C31.8978 121.546 29.2339 118.875 29.2339 115.565V71.1918C29.2339 67.9093 31.8978 65.1982 35.1979 65.1982C38.5113 65.1982 41.162 67.896 41.162 71.1918V115.565Z" fill="#07B4E5"/>
<path d="M42.2089 68.3479C41.321 75.0325 35.8075 74.8465 29.1145 73.9561L23.9855 73.265C17.2792 72.3746 11.9116 71.0989 12.7995 64.4142L16.5768 35.9481C0.52685 24.1603 23.6409 24.5192 30.3471 25.4096L35.4762 26.1006C42.1692 26.991 65.0314 33.0909 45.9994 39.8818L42.2222 68.3479H42.2089Z" fill="#07B4E5"/>
<path d="M58.378 74.9793C57.9538 77.0392 55.9791 78.3682 53.9115 77.9296C51.8573 77.5043 50.5452 75.4976 50.9825 73.4378C55.6742 59.3243 58.2057 52.1214 60.6045 38.3269C60.6708 36.3069 62.4203 35.0311 64.5673 35.4298C66.7409 35.8418 68.4108 37.8086 68.318 39.8552C65.8662 53.7693 63.0829 60.8659 58.3912 74.9793H58.378Z" fill="#EB5DE5"/>
<path d="M103.983 73.7966C104.341 75.8565 102.989 77.8499 100.935 78.222C98.8803 78.5941 96.8923 77.2253 96.5212 75.1654C93.0355 63.072 89.0595 51.0848 83.6786 39.6957C82.9894 37.6492 83.9436 35.576 85.9052 35.1507C87.8534 34.7255 90.2125 36.2405 90.915 38.3003C96.1501 49.7825 100.537 61.6633 103.983 73.8099V73.7966Z" fill="#EB5DE5"/>
<path d="M75.9918 117.772C75.9918 120.124 74.1098 121.998 71.7639 121.998C69.4446 121.998 67.5493 120.111 67.5493 117.772C67.5493 105.213 67.5493 98.9271 67.5493 86.3685C67.5493 84.0295 69.4446 82.1292 71.7639 82.1292C74.1098 82.1292 75.9918 84.0295 75.9918 86.3685C75.9918 98.9271 75.9918 105.213 75.9918 117.772Z" fill="#EB5DE5"/>
<path d="M87.6153 117.772C87.6153 120.124 85.7333 121.998 83.4007 121.998C81.0681 121.998 79.1729 120.111 79.1729 117.772C79.1729 105.213 79.1729 98.9271 79.1729 86.3685C79.1729 84.0295 81.0681 82.1292 83.4007 82.1292C85.7333 82.1292 87.6153 84.0295 87.6153 86.3685C87.6153 98.9271 87.6153 105.213 87.6153 117.772Z" fill="#EB5DE5"/>
<path d="M94.9179 94.6212C95.4746 102.834 90.478 103.525 84.2489 103.525H70.9292C64.6868 103.525 59.6903 102.834 60.2602 94.6212C62.5398 77.212 65.7339 59.6698 65.7471 42.0613C53.4744 35.3235 68.411 33.5427 73.0365 33.5028C74.4546 33.4895 75.1438 33.4895 76.5089 33.4629C80.9488 33.3832 97.4229 35.2969 86.449 41.9549C91.1275 59.125 92.6384 77.0392 94.9312 94.6212H94.9179Z" fill="#EB5DE5"/>
<path d="M67.841 32.7452C74.4147 32.7452 79.7558 27.3763 79.7558 20.798C79.7558 14.2197 74.4147 8.86401 67.841 8.86401C61.2673 8.86401 55.9526 14.2064 55.9526 20.798C55.9526 27.3896 61.2673 32.7452 67.841 32.7452Z" fill="#EB5DE5"/>
<defs>
<radialGradient id="paint0_radial_118_633" cx="0" cy="0" r="1" gradientUnits="userSpaceOnUse" gradientTransform="translate(55.4755 130.776) scale(40.4356 8.34447)">
<stop/>
<stop offset="0.02" stop-color="#101010"/>
<stop offset="0.09" stop-color="#424242"/>
<stop offset="0.17" stop-color="#6F6F6F"/>
<stop offset="0.25" stop-color="#959595"/>
<stop offset="0.34" stop-color="#B6B6B6"/>
<stop offset="0.43" stop-color="#D1D1D1"/>
<stop offset="0.53" stop-color="#E5E5E5"/>
<stop offset="0.64" stop-color="#F3F3F3"/>
<stop offset="0.78" stop-color="#FCFCFC"/>
<stop offset="1" stop-color="white"/>
</radialGradient>
</defs>
</svg>
